<?xml version="1.0" encoding="UTF-8"?>
<svg id="Layer_1" data-name="Layer 1" xmlns="http://www.w3.org/2000/svg" xmlns:xlink="http://www.w3.org/1999/xlink" viewBox="0 0 340 340">
  <defs>
    <style>
      .cls-1 {
        stroke: url(#linear-gradient-10);
      }

      .cls-1, .cls-2, .cls-3, .cls-4, .cls-5, .cls-6, .cls-7, .cls-8, .cls-9, .cls-10, .cls-11, .cls-12, .cls-13 {
        stroke-miterlimit: 10;
      }

      .cls-1, .cls-2, .cls-3, .cls-4, .cls-5, .cls-6, .cls-7, .cls-8, .cls-10, .cls-12, .cls-13 {
        fill: none;
      }

      .cls-1, .cls-3, .cls-4, .cls-5, .cls-8, .cls-10, .cls-12, .cls-13 {
        stroke-width: .75px;
      }

      .cls-14 {
        fill: url(#linear-gradient-2);
      }

      .cls-2 {
        stroke: url(#linear-gradient-4);
        stroke-width: 2px;
      }

      .cls-3 {
        stroke: url(#linear-gradient-7);
      }

      .cls-4 {
        stroke: url(#linear-gradient-8);
      }

      .cls-15 {
        fill: url(#linear-gradient-28);
      }

      .cls-16 {
        fill: url(#linear-gradient-20);
      }

      .cls-5 {
        stroke: url(#linear-gradient-12);
      }

      .cls-6 {
        stroke: url(#linear-gradient-13);
      }

      .cls-6, .cls-7 {
        stroke-width: 1px;
      }

      .cls-7 {
        stroke: url(#linear-gradient-14);
      }

      .cls-17 {
        fill: url(#linear-gradient-21);
      }

      .cls-18 {
        fill: url(#linear-gradient-25);
      }

      .cls-8 {
        stroke: url(#linear-gradient-6);
      }

      .cls-9 {
        fill: url(#linear-gradient-15);
        stroke: url(#linear-gradient-16);
      }

      .cls-9, .cls-11 {
        stroke-width: 1.77px;
      }

      .cls-10 {
        stroke: url(#linear-gradient-11);
      }

      .cls-11 {
        fill: url(#linear-gradient-17);
        stroke: url(#linear-gradient-18);
      }

      .cls-19 {
        fill: url(#linear-gradient-24);
      }

      .cls-20 {
        fill: url(#linear-gradient-22);
      }

      .cls-21 {
        fill: url(#linear-gradient-3);
      }

      .cls-22 {
        fill: url(#linear-gradient);
      }

      .cls-23 {
        fill: url(#linear-gradient-27);
      }

      .cls-12 {
        stroke: url(#linear-gradient-5);
      }

      .cls-24 {
        fill: url(#linear-gradient-23);
      }

      .cls-25 {
        fill: url(#linear-gradient-19);
      }

      .cls-13 {
        stroke: url(#linear-gradient-9);
      }

      .cls-26 {
        fill: #231f20;
      }

      .cls-27 {
        fill: url(#linear-gradient-26);
      }
    </style>
    <linearGradient id="linear-gradient" x1="170" y1="85.39" x2="170" y2="16.96" gradientUnits="userSpaceOnUse">
      <stop offset="0" stop-color="#b47f2b"/>
      <stop offset=".09" stop-color="#e1bf61"/>
      <stop offset=".14" stop-color="#f8df7c"/>
      <stop offset=".26" stop-color="#fff4a7"/>
      <stop offset=".36" stop-color="#f8df7c"/>
      <stop offset=".49" stop-color="#b47f2b"/>
      <stop offset=".57" stop-color="#e1bf61"/>
      <stop offset=".61" stop-color="#f8df7c"/>
      <stop offset=".72" stop-color="#fff4a7"/>
      <stop offset=".84" stop-color="#f8df7c"/>
      <stop offset="1" stop-color="#b47f2b"/>
    </linearGradient>
    <linearGradient id="linear-gradient-2" x1="170" y1="154.18" x2="170" y2="85.75" gradientTransform="translate(0 408.8) scale(1 -1)" xlink:href="#linear-gradient"/>
    <linearGradient id="linear-gradient-3" x1="48.41" y1="196.98" x2="291.59" y2="196.98" xlink:href="#linear-gradient"/>
    <linearGradient id="linear-gradient-4" x1="133.12" y1="256.67" x2="206.88" y2="256.67" xlink:href="#linear-gradient"/>
    <linearGradient id="linear-gradient-5" x1="148.44" y1="256.67" x2="159.27" y2="256.67" xlink:href="#linear-gradient"/>
    <linearGradient id="linear-gradient-6" x1="149.01" y1="241.89" x2="158.7" y2="241.89" xlink:href="#linear-gradient"/>
    <linearGradient id="linear-gradient-7" x1="161.04" y1="241.89" x2="170.73" y2="241.89" xlink:href="#linear-gradient"/>
    <linearGradient id="linear-gradient-8" x1="183.23" y1="258.12" x2="189.55" y2="258.12" xlink:href="#linear-gradient"/>
    <linearGradient id="linear-gradient-9" x1="183.5" y1="240.33" x2="189.28" y2="240.33" xlink:href="#linear-gradient"/>
    <linearGradient id="linear-gradient-10" x1="183.51" y1="248.94" x2="189.28" y2="248.94" xlink:href="#linear-gradient"/>
    <linearGradient id="linear-gradient-11" x1="178.57" y1="244.85" x2="184.34" y2="244.85" xlink:href="#linear-gradient"/>
    <linearGradient id="linear-gradient-12" x1="188.27" y1="244.85" x2="194.04" y2="244.85" xlink:href="#linear-gradient"/>
    <linearGradient id="linear-gradient-13" x1="182.02" y1="230.48" x2="198.5" y2="230.48" xlink:href="#linear-gradient"/>
    <linearGradient id="linear-gradient-14" x1="142.83" y1="230.12" x2="159.06" y2="230.12" xlink:href="#linear-gradient"/>
    <linearGradient id="linear-gradient-15" x1="143.66" y1="88.77" x2="153.7" y2="88.77" xlink:href="#linear-gradient"/>
    <linearGradient id="linear-gradient-16" x1="142.82" y1="88.77" x2="154.54" y2="88.77" xlink:href="#linear-gradient"/>
    <linearGradient id="linear-gradient-17" x1="154.12" y1="89.94" x2="160.85" y2="89.94" xlink:href="#linear-gradient"/>
    <linearGradient id="linear-gradient-18" x1="153.26" y1="89.94" x2="161.71" y2="89.94" xlink:href="#linear-gradient"/>
    <linearGradient id="linear-gradient-19" x1="131.48" y1="89.41" x2="208.54" y2="89.41" xlink:href="#linear-gradient"/>
    <linearGradient id="linear-gradient-20" x1="132.05" y1="70.75" x2="208.08" y2="70.75" xlink:href="#linear-gradient"/>
    <linearGradient id="linear-gradient-21" x1="163.73" y1="58.83" x2="176.29" y2="58.83" xlink:href="#linear-gradient"/>
    <linearGradient id="linear-gradient-22" x1="126.09" y1="85.73" x2="130.45" y2="85.73" xlink:href="#linear-gradient"/>
    <linearGradient id="linear-gradient-23" x1="209.49" y1="85.74" x2="213.91" y2="85.74" xlink:href="#linear-gradient"/>
    <linearGradient id="linear-gradient-24" x1="76.34" y1="151.51" x2="74.33" y2="201.01" xlink:href="#linear-gradient"/>
    <linearGradient id="linear-gradient-25" x1="110.03" y1="150.35" x2="151.63" y2="150.35" xlink:href="#linear-gradient"/>
    <linearGradient id="linear-gradient-26" x1="188.41" y1="150.39" x2="242.11" y2="150.39" xlink:href="#linear-gradient"/>
    <linearGradient id="linear-gradient-27" x1="250" y1="150.35" x2="291.59" y2="150.35" xlink:href="#linear-gradient"/>
    <linearGradient id="linear-gradient-28" x1="180.36" y1="150.2" x2="213.2" y2="150.2" gradientTransform="translate(365.99) rotate(-180) scale(1 -1)" xlink:href="#linear-gradient"/>
  </defs>
  <rect class="cls-26" y="0" width="340" height="340" rx="112.41" ry="112.41"/>
  <g>
    <polygon class="cls-22" points="285.61 85.39 170.01 26.73 54.39 85.39 170.01 16.96 285.61 85.39"/>
    <polygon class="cls-14" points="285.61 254.61 170.01 313.27 54.39 254.61 170.01 323.04 285.61 254.61"/>
    <rect class="cls-21" x="48.41" y="182.21" width="243.18" height="29.55"/>
    <g>
      <path class="cls-26" d="m63.7,203.92l-.78-.96c-.98.78-2.12,1.16-3.41,1.16-2.25,0-4.03-1.12-4.03-3.45,0-1.62.88-2.64,2.41-3.86l-.39-.47c-.67-.84-1.45-1.94-1.45-3.23,0-1.78,1.58-3.09,4.01-3.09,2.3,0,3.85,1.16,3.85,2.96,0,1.47-.6,2.17-2.82,4.01l1.73,2.04c.21-.55.39-1.19.59-1.96h2.74c-.47,1.62-.98,2.94-1.63,3.97l2.46,2.88h-3.28Zm-2.04-2.51l-2.38-2.88c-.72.69-1.06,1.21-1.06,2.04,0,1.19.8,1.59,1.81,1.59.62,0,1.14-.18,1.63-.74Zm-2.97-8.3c0,.61.28,1.35,1.06,2.29,1.11-.84,1.66-1.43,1.66-2.29,0-.8-.47-1.23-1.32-1.23s-1.4.49-1.4,1.23Z"/>
      <path class="cls-26" d="m80.27,194.49v-1.16c0-.86-.65-1.35-1.66-1.35s-1.66.49-1.66,1.35v7.48c0,.86.65,1.35,1.66,1.35s1.66-.49,1.66-1.35v-2.43h-1.66v-1.96h4.4v4.39c0,1.98-1.76,3.31-4.4,3.31s-4.4-1.33-4.4-3.31v-7.48c0-1.98,1.76-3.31,4.4-3.31s4.4,1.33,4.4,3.31v1.16h-2.74Z"/>
      <path class="cls-26" d="m91.06,200.89h-2.95l-.59,3.03h-2.74l3-13.7h3.67l3,13.7h-2.79l-.59-3.03Zm-.36-2l-1.11-5.74-1.11,5.74h2.22Z"/>
      <path class="cls-26" d="m109.03,190.22v13.7h-2.74v-9.4l-2.56,9.4h-1.91l-2.56-9.4v9.4h-2.69v-13.7h3.88l2.38,8.75,2.28-8.75h3.93Z"/>
      <path class="cls-26" d="m112.03,190.22h7.79v1.96h-5.04v3.82h4.01v1.96h-4.01v4.01h5.04v1.96h-7.79v-13.7Z"/>
      <path class="cls-26" d="m127.29,190.22h4.29c2.61,0,4.29,1.29,4.29,3.27v7.17c0,1.98-1.68,3.27-4.29,3.27h-4.29v-13.7Zm4.16,11.75c1.06,0,1.68-.47,1.68-1.27v-7.24c0-.8-.62-1.27-1.68-1.27h-1.42v9.79h1.42Z"/>
      <path class="cls-26" d="m138.62,190.22h7.79v1.96h-5.04v3.82h4.01v1.96h-4.01v4.01h5.04v1.96h-7.79v-13.7Z"/>
      <path class="cls-26" d="m157.76,190.22l-3,13.7h-3.67l-3-13.7h2.79l2.07,10.77,2.07-10.77h2.74Z"/>
      <path class="cls-26" d="m159.88,190.22h7.79v1.96h-5.04v3.82h4.01v1.96h-4.01v4.01h5.04v1.96h-7.79v-13.7Z"/>
      <path class="cls-26" d="m169.96,190.22h2.74v11.75h4.89v1.96h-7.63v-13.7Z"/>
      <path class="cls-26" d="m179.48,200.81v-7.48c0-1.98,1.76-3.31,4.4-3.31s4.4,1.33,4.4,3.31v7.48c0,1.98-1.76,3.31-4.4,3.31s-4.4-1.33-4.4-3.31Zm6.05,0v-7.48c0-.86-.65-1.35-1.66-1.35s-1.66.49-1.66,1.35v7.48c0,.86.65,1.35,1.66,1.35s1.66-.49,1.66-1.35Z"/>
      <path class="cls-26" d="m191.04,190.22h4.29c2.61,0,4.29,1.29,4.29,3.27v1.61c0,1.98-1.68,3.27-4.29,3.27h-1.55v5.56h-2.74v-13.7Zm4.16,6.19c1.06,0,1.68-.47,1.68-1.27v-1.68c0-.8-.62-1.27-1.68-1.27h-1.42v4.23h1.42Z"/>
      <path class="cls-26" d="m214.39,190.22v13.7h-2.74v-9.4l-2.56,9.4h-1.91l-2.56-9.4v9.4h-2.69v-13.7h3.88l2.38,8.75,2.28-8.75h3.93Z"/>
      <path class="cls-26" d="m217.39,190.22h7.79v1.96h-5.04v3.82h4.01v1.96h-4.01v4.01h5.04v1.96h-7.79v-13.7Z"/>
      <path class="cls-26" d="m227.48,190.22h3.03l3.49,9.2v-9.2h2.69v13.7h-2.9l-3.62-8.77v8.77h-2.69v-13.7Z"/>
      <path class="cls-26" d="m238.81,190.22h8.74v1.96h-3v11.75h-2.74v-11.75h-3v-1.96Z"/>
      <path class="cls-26" d="m254.84,190.22h2.74v11.75h4.89v1.96h-7.63v-13.7Z"/>
      <path class="cls-26" d="m270.25,200.89h-2.95l-.59,3.03h-2.74l3-13.7h3.67l3,13.7h-2.79l-.59-3.03Zm-.36-2l-1.11-5.74-1.11,5.74h2.22Z"/>
      <path class="cls-26" d="m284.63,199.54v1.12c0,1.98-1.68,3.27-4.29,3.27h-4.58v-13.7h4.34c2.61,0,4.29,1.29,4.29,3.27v.72c0,1.23-.65,2.11-1.84,2.62,1.32.47,2.07,1.39,2.07,2.7Zm-6.13-7.36v3.72h1.22c1.32,0,1.94-.47,1.94-1.47v-.98c0-.8-.62-1.27-1.68-1.27h-1.47Zm3.39,7.15c0-1-.62-1.47-1.94-1.47h-1.45v4.11h1.71c1.06,0,1.68-.47,1.68-1.27v-1.37Z"/>
    </g>
    <path class="cls-2" d="m170.07,232.19c4.34.15,8.68.22,13.01.48,3.74.22,7.36,1.01,10.62,3.06,1.41.89,2.44,2,3.1,3.6,3.35,8.12,6.36,16.34,8.25,24.95.71,3.24,1.15,6.51.53,9.79-.64,3.39-2.44,5.95-5.93,6.96-.76.22-1.4.08-2.04-.4-2.66-2-4.95-4.35-6.89-7.07-.91-1.28-1.89-2.51-2.91-3.71-1.65-1.93-3.8-2.8-6.31-2.8-7.69,0-15.37-.01-23.06,0-2.44,0-4.57.83-6.18,2.72-1.36,1.61-2.63,3.31-3.91,4.99-1.73,2.29-3.81,4.22-6.09,5.94-.57.43-1.15.54-1.82.36-3.53-.98-5.37-3.53-6.03-6.96-.63-3.3-.18-6.61.54-9.87,1.98-8.98,5.1-17.57,8.76-25.97.24-.55.66-1.07,1.13-1.45,2.76-2.27,6-3.35,9.47-3.86,5.23-.76,10.49-.64,15.75-.77Z"/>
    <path class="cls-12" d="m152.19,258.37c0,.41,0,.71,0,1.01.04,2.77-.41,2.32,2.42,2.39.72.02.96-.3.93-.98-.03-.78,0-1.56,0-2.42.4,0,.69,0,.98,0,2.73-.05,2.3.43,2.36-2.45.02-.73-.29-.96-.97-.93-.77.03-1.54,0-2.38,0,0-.91-.01-1.69,0-2.48.01-.64-.22-.97-.9-.93-.51.03-1.03.04-1.53,0-.72-.05-.96.28-.93.97.04.78,0,1.56,0,2.44-.81,0-1.53,0-2.25,0-1.07,0-1.12.06-1.13,1.17,0,.27,0,.54,0,.82q0,1.38,1.41,1.38c.61,0,1.23,0,1.97,0Z"/>
    <path class="cls-8" d="m158.32,241.91c0-2.51-1.97-4.52-4.45-4.52-2.47,0-4.48,2.01-4.49,4.5,0,2.5,1.99,4.52,4.46,4.52,2.5,0,4.46-1.98,4.47-4.49Z"/>
    <path class="cls-3" d="m170.35,241.9c0-2.5-1.98-4.52-4.46-4.52-2.46,0-4.48,2.03-4.48,4.51,0,2.5,2,4.51,4.47,4.51,2.49,0,4.47-1.99,4.47-4.5Z"/>
    <path class="cls-4" d="m186.41,260.94c1.54,0,2.76-1.25,2.76-2.81,0-1.56-1.21-2.8-2.76-2.82-1.57-.02-2.82,1.26-2.81,2.85.02,1.55,1.26,2.79,2.8,2.78Z"/>
    <path class="cls-13" d="m183.88,240.33c0,1.41,1.11,2.53,2.5,2.53,1.37,0,2.52-1.16,2.52-2.54,0-1.39-1.14-2.52-2.52-2.53-1.39,0-2.51,1.13-2.5,2.53Z"/>
    <path class="cls-1" d="m186.4,251.47c1.39,0,2.51-1.13,2.5-2.54,0-1.39-1.15-2.55-2.52-2.54-1.38.01-2.51,1.15-2.5,2.55,0,1.4,1.13,2.53,2.52,2.52Z"/>
    <path class="cls-10" d="m181.5,247.39c1.39-.01,2.48-1.14,2.47-2.56-.01-1.39-1.16-2.53-2.53-2.51-1.36.02-2.52,1.21-2.49,2.57.03,1.4,1.16,2.51,2.55,2.5Z"/>
    <path class="cls-5" d="m191.12,242.32c-1.4.01-2.49,1.14-2.48,2.55.01,1.4,1.16,2.54,2.53,2.52,1.36-.02,2.51-1.2,2.49-2.57-.02-1.39-1.15-2.51-2.54-2.5Z"/>
    <path class="cls-6" d="m196.83,232.56c-4.05-2.94-8.76-3.6-13.7-3.97.82-.83,1.46-1.65,2.68-1.5,1.52.19,3.07.24,4.56.56,2.86.62,4.95,2.38,6.46,4.91Z"/>
    <path class="cls-7" d="m158.12,228.27c-4.86.36-9.55,1.01-13.61,3.92,1.63-2.71,3.93-4.43,7.01-5.01,1.11-.21,2.25-.24,3.37-.41,1.34-.2,2.36.3,3.24,1.49Z"/>
    <g>
      <line class="cls-9" x1="153.7" y1="74.09" x2="143.66" y2="103.45"/>
      <line class="cls-11" x1="160.85" y1="74.09" x2="154.12" y2="105.79"/>
      <g>
        <path class="cls-25" d="m170.11,72.31c10.4,0,20.79.07,31.19-.05,2.57-.03,4.05,1.12,5.05,3.36,1.91,4.26,2.39,8.84,2.13,13.4-.23,3.99-.96,8-1.9,11.89-.71,2.96-2.81,4.32-5.98,4.4-6.63.18-13.25.7-19.87,1.19-3.74.28-5.9-1.47-6.3-5.33-.11-1.04-.24-2.1-.58-3.07-.64-1.84-1.95-3.1-3.86-3.1-1.9,0-3.23,1.27-3.84,3.12-.37,1.12-.47,2.34-.61,3.52-.37,3.1-2.47,5.07-5.41,4.9-7.35-.42-14.69-.9-22.03-1.32-2.35-.14-3.6-1.71-4.49-3.69-1.82-4.04-2.24-8.41-2.08-12.74.14-3.86.64-7.77,1.53-11.52.96-4.08,2.53-4.98,6.53-4.98,10.18,0,20.36,0,30.54,0Zm-.08,1.84c-10.25,0-20.5.07-30.75-.05-2.26-.03-3.53.84-4.22,2.93-2.54,7.79-2.53,15.59.04,23.36.68,2.05,2.04,2.97,4.26,3.06,6.85.26,13.69.74,20.53,1.15,2.32.14,3.6-1,3.86-3.46.1-.97.21-1.94.43-2.89.67-2.97,3.15-5.14,5.8-5.15,2.65,0,5.14,2.15,5.84,5.11.2.87.33,1.77.41,2.66.28,2.89,1.47,3.86,4.27,3.68,6.41-.41,12.82-.79,19.23-1.11,3.83-.19,4.45-.57,5.69-4.47,1.69-5.33,1.53-10.81.94-16.27-.22-2.05-.9-4.08-1.57-6.04-.6-1.76-1.77-2.6-3.8-2.57-10.32.12-20.65.06-30.97.06Z"/>
        <path class="cls-16" d="m208.08,75.51c-1.86-4.11-5.12-4.54-8.93-4.52-19.62.11-39.25.11-58.88,0-3.65-.02-6.62.64-8.23,4.55.35-1.46.63-2.94,1.08-4.37,1.4-4.41,2.45-5.17,6.84-5.17,20.34,0,40.69.04,61.03-.05,2.66-.01,4.28,1.06,5.17,3.46.74,1.99,1.28,4.07,1.91,6.1Zm-22.14-7.57c-.12-.27-.24-.55-.35-.82h-31.17c-.1.27-.19.53-.29.8.82.44,1.63,1.24,2.45,1.25,8.96.09,17.91.1,26.87,0,.84,0,1.66-.81,2.5-1.24Z"/>
        <path class="cls-17" d="m176.27,64.74h-12.49c0-3.23-.13-6.42.06-9.59.09-1.52,1.35-2.2,2.81-2.21,2.23,0,4.47-.03,6.7,0,1.65.02,2.84.79,2.89,2.62.09,2.98.02,5.97.02,9.18Zm-3.67-1.02c-.26-1.52-.1-3.22-.84-4.05-.56-.64-2.79-.7-3.34-.09-.79.87-.73,2.58-1.09,4.15h5.26Z"/>
        <path class="cls-20" d="m130.45,92.09c-3.59.48-4.35-.19-4.36-3.93,0-1.72-.01-3.44,0-5.17.02-3.24.89-4.02,4.36-3.71v12.81Z"/>
        <path class="cls-24" d="m209.49,92.06v-12.58c3.23-.72,4.36.19,4.41,3.33.02,1.79,0,3.59,0,5.38-.01,3.75-.79,4.43-4.41,3.87Z"/>
      </g>
    </g>
    <g>
      <g>
        <path class="cls-19" d="m75.14,177.68l-.04-10.77h11l-10.84-28.19-14.9,38.88h-11.95l20.86-54.44h12.03l20.86,54.44h-7.89v.08h-19.12Zm-15.49-6.96c0-1.03-.63-1.86-1.46-2.36l13.76-34.01c.16.04.32.11.47.11,1.54,0,2.84-1.22,2.84-2.74s-1.3-2.74-2.84-2.74-2.84,1.22-2.84,2.74c0,.95.55,1.75,1.3,2.24l-13.76,34.09c-.12-.04-.2-.08-.32-.08-1.58,0-2.84,1.22-2.84,2.74s1.26,2.7,2.84,2.7,2.84-1.22,2.84-2.7Zm-4.57-.15c0-.91.79-1.67,1.73-1.67s1.7.76,1.7,1.67-.75,1.64-1.7,1.64-1.73-.72-1.73-1.64Zm15.65-38.99c0-.91.75-1.64,1.7-1.64s1.7.72,1.7,1.64-.75,1.64-1.7,1.64-1.7-.72-1.7-1.64Z"/>
        <path class="cls-18" d="m140.47,177.68l-8.28-21.91h-11v21.91h-11.16v-54.55h5.6v-.11h21.49c8.24,0,14.23,4.03,14.23,9.55v13.7c0,4.11-3.27,7.34-8.28,8.75l8.56,22.67h-11.16Zm7.25-3.88c0-1.52-1.3-2.74-2.84-2.74-.2,0-.39.08-.59.11l-8.08-21.38h-17.47c-.36-1.07-1.38-1.86-2.64-1.86-1.54,0-2.84,1.22-2.84,2.74s1.3,2.74,2.84,2.74,2.68-1.14,2.8-2.55h16.56l7.81,20.73c-.71.49-1.22,1.29-1.22,2.21,0,1.48,1.26,2.7,2.84,2.7s2.84-1.22,2.84-2.7Zm-33.32-23.13c0-.91.75-1.67,1.7-1.67s1.73.76,1.73,1.67-.79,1.64-1.73,1.64-1.7-.72-1.7-1.64Zm25.79-6.05v-10.42c-.63-.19-1.66-.42-3.08-.42h-15.93v11.22h16.05c1.34,0,2.33-.19,2.96-.38Zm3,29.18c0-1.03.55-1.29,1.5-1.64l.2-.04c.95,0,1.7.76,1.7,1.67s-.75,1.64-1.7,1.64-1.7-.72-1.7-1.64Z"/>
        <path class="cls-27" d="m209.27,177.72c-13.96-36.45-6.27-16.4-20.86-54.67h11.95l14.9,38.99,14.86-38.99h11.99l-20.86,54.67h-11.99Zm6.7-7.11c0-1.52-1.26-2.74-2.84-2.74-.2,0-.35.08-.55.11l-14.94-37.7c.79-.49,1.34-1.29,1.34-2.24,0-1.52-1.3-2.74-2.84-2.74s-2.84,1.22-2.84,2.74,1.26,2.7,2.84,2.7c.16,0,.28-.04.43-.08l14.98,37.74c-.71.49-1.22,1.26-1.22,2.21,0,1.48,1.26,2.74,2.8,2.74s2.84-1.26,2.84-2.74Zm-21.57-42.57c0-.91.79-1.67,1.73-1.67s1.7.76,1.7,1.67-.75,1.64-1.7,1.64-1.73-.72-1.73-1.64Zm17.03,42.57c0-.91.75-1.67,1.7-1.67s1.73.76,1.73,1.67-.79,1.64-1.73,1.64-1.7-.72-1.7-1.64Z"/>
        <path class="cls-23" d="m280.43,177.68l-8.28-21.91h-11v21.91h-11.16v-54.55h5.6v-.11h21.49c8.24,0,14.23,4.03,14.23,9.55v13.7c0,4.11-3.27,7.34-8.28,8.75l8.56,22.67h-11.16Zm7.25-3.88c0-1.52-1.3-2.74-2.84-2.74-.2,0-.39.08-.59.11l-8.08-21.38h-17.47c-.35-1.07-1.38-1.86-2.64-1.86-1.54,0-2.84,1.22-2.84,2.74s1.3,2.74,2.84,2.74,2.68-1.14,2.8-2.55h16.56l7.81,20.73c-.71.49-1.22,1.29-1.22,2.21,0,1.48,1.26,2.7,2.84,2.7s2.84-1.22,2.84-2.7Zm-33.32-23.13c0-.91.75-1.67,1.7-1.67s1.73.76,1.73,1.67-.79,1.64-1.73,1.64-1.7-.72-1.7-1.64Zm25.79-6.05v-10.42c-.63-.19-1.66-.42-3.08-.42h-15.93v11.22h16.05c1.34,0,2.33-.19,2.96-.38Zm3,29.18c0-1.03.55-1.29,1.5-1.64l.2-.04c.95,0,1.7.76,1.7,1.67s-.75,1.64-1.7,1.64-1.7-.72-1.7-1.64Z"/>
      </g>
      <path class="cls-15" d="m152.78,177.54l5.99-15.67,14.9-38.99h11.95c-14.59,38.27-6.9,18.22-20.86,54.67h-11.99Zm8.12-4.37c1.54,0,2.8-1.26,2.8-2.74,0-.95-.51-1.71-1.22-2.21l14.98-37.74c.16.04.28.08.43.08,1.58,0,2.84-1.22,2.84-2.7s-1.26-2.74-2.84-2.74-2.84,1.22-2.84,2.74c0,.95.55,1.75,1.34,2.24l-14.94,37.7c-.2-.04-.35-.11-.55-.11-1.58,0-2.84,1.22-2.84,2.74,0,1.48,1.26,2.74,2.84,2.74Zm16.99-43.67c-.95,0-1.7-.72-1.7-1.64s.75-1.67,1.7-1.67,1.73.76,1.73,1.67-.79,1.64-1.73,1.64Zm-16.99,42.57c-.95,0-1.73-.72-1.73-1.64s.79-1.67,1.73-1.67,1.7.76,1.7,1.67-.75,1.64-1.7,1.64Z"/>
    </g>
  </g>
</svg>