<?xml version="1.0" encoding="utf-8"?>
<!-- Generator: Adobe Illustrator 27.2.0, SVG Export Plug-In . SVG Version: 6.00 Build 0)  -->
<svg version="1.1" id="Layer_1" xmlns="http://www.w3.org/2000/svg" xmlns:xlink="http://www.w3.org/1999/xlink" x="0px" y="0px"
	 viewBox="0 0 398 397" style="enable-background:new 0 0 398 397;" xml:space="preserve">
<style type="text/css">
	.st0{fill:#39B24A;}
	.st1{fill:#FFFFFF;}
	.st2{fill:#06509E;}
	.st3{fill:#FDFEFF;}
	.st4{fill:#FBFEFF;}
	.st5{fill:#FDFDFE;}
	.st6{fill:#457CBA;}
	.st7{fill:#AAC3DF;}
	.st8{fill:#437BB8;}
	.st9{fill:#3973B4;}
	.st10{fill:#427AB9;}
	.st11{fill:#0A509F;}
	.st12{fill:#0A519F;}
	.st13{fill:#0C52A0;}
	.st14{fill:#0B53A1;}
	.st15{fill:#0A52A0;}
	.st16{fill:#4B80BC;}
	.st17{fill:#A6A7AA;}
	.st18{fill:#39B24B;}
	.st19{fill:#3CB14C;}
	.st20{fill:#61AD6E;}
	.st21{fill:#E5E6E7;}
	.st22{fill:#E4E6E6;}
	.st23{fill:#F8FBFC;}
	.st24{fill:#F5F8FB;}
	.st25{fill:#F3F6FA;}
	.st26{fill:#F6F9FB;}
	.st27{fill:#F5F7FC;}
	.st28{fill:#EEF2F7;}
	.st29{fill:#E2EAF2;}
	.st30{fill:#F7FAFC;}
	.st31{fill:#F3F7FB;}
	.st32{fill:#F4F7FA;}
	.st33{fill:#F7F9FD;}
	.st34{fill:#E7EDF5;}
	.st35{fill:#ECF2F6;}
	.st36{fill:#E9EFF6;}
	.st37{fill:#E7EDF4;}
	.st38{fill:#D9E3EF;}
	.st39{fill:#E8EFF5;}
	.st40{fill:#DFE7F2;}
	.st41{fill:#C3D5E8;}
	.st42{fill:#E4EBED;}
	.st43{fill:#E1E9ED;}
	.st44{fill:#DFEFF5;}
	.st45{fill:#BEE3F4;}
	.st46{fill:#1659A6;}
	.st47{fill:#1358A5;}
	.st48{fill:#1B4075;}
	.st49{fill:#F0F4F9;}
	.st50{fill:#195CA7;}
	.st51{fill:#E1E9F2;}
	.st52{fill:#1C4480;}
	.st53{fill:#1E5EA9;}
	.st54{fill:#FBFDFD;}
	.st55{fill:#73859A;}
	.st56{fill:#1B3F72;}
	.st57{fill:#EA2327;}
	.st58{fill:#1C94D2;}
	.st59{fill:#7F8083;}
	.st60{fill:#0A509E;}
	.st61{fill:#8DD6F5;}
	.st62{fill:#8BD4F3;}
	.st63{fill:#879094;}
	.st64{fill:#8CD4F5;}
	.st65{fill:#8BD4F6;}
	.st66{fill:#8DD5F5;}
	.st67{fill:#8ACFED;}
	.st68{fill:#28A2DC;}
	.st69{fill:#484546;}
	.st70{fill:#1F98D2;}
	.st71{fill:#8CD3F2;}
	.st72{fill:#8BD3F4;}
	.st73{fill:#8ED2EF;}
	.st74{fill:#309CCF;}
	.st75{fill:#1257A4;}
	.st76{fill:#2061AB;}
	.st77{fill:#1D5FAA;}
	.st78{fill:#2162AC;}
	.st79{fill:#175DA8;}
	.st80{fill:#2968AE;}
	.st81{fill:#8BD5F5;}
	.st82{fill:#88D3F4;}
	.st83{fill:#85D1F2;}
	.st84{fill:#82D0F2;}
	.st85{fill:#81CFF1;}
	.st86{fill:#8AD5F4;}
	.st87{fill:#88D2F4;}
	.st88{fill:#7DC0DD;}
	.st89{fill:#77BCDA;}
	.st90{fill:#8AD3F2;}
	.st91{fill:#FAFAFA;}
	.st92{fill:#88D1F2;}
	.st93{fill:#F7F8F8;}
	.st94{fill:#5B595A;}
	.st95{fill:#434142;}
	.st96{fill:#373334;}
	.st97{fill:#4A4748;}
	.st98{fill:#696769;}
	.st99{fill:#464344;}
	.st100{fill:#555354;}
	.st101{fill:#4D4A4C;}
	.st102{fill:#444142;}
	.st103{fill:#60676D;}
	.st104{fill:#615E5F;}
	.st105{fill:#2F2B2C;}
	.st106{fill:#4EB0DC;}
	.st107{fill:#2B2729;}
	.st108{fill:#2C292A;}
	.st109{fill:#292526;}
	.st110{fill:#2D2A2A;}
	.st111{fill:#2B2728;}
	.st112{fill:#D0D2D3;}
	.st113{fill:#242021;}
	.st114{fill:#7D7C7F;}
	.st115{fill:#A9AAAC;}
	.st116{fill:#7F7E81;}
	.st117{fill:#787779;}
	.st118{fill:#7B7B7D;}
	.st119{fill:#5B595B;}
	.st120{fill:#8F8F91;}
	.st121{fill:#5A585A;}
	.st122{fill:#565456;}
	.st123{fill:#535153;}
	.st124{fill:#838385;}
	.st125{fill:#ABACAE;}
	.st126{fill:#A2A3A5;}
</style>
<g>
	<path class="st0" d="M11,177.3c0-0.4,0.1-0.9,0.1-1.3c0.4-0.5,0-1.1,0.3-1.6c0.7-6.2,1.9-12.4,3.3-18.5c1.5-6.7,3.4-13.4,5.7-19.9
		c2-5.7,4.3-11.3,6.8-16.8c4.3-9.5,9.6-18.4,15.4-27c3.5-5.2,7.4-10.1,11.4-15c5-6.2,10.8-11.7,16.5-17.2c3.3-3.3,7-6.2,10.7-9.2
		c5-3.9,10-7.7,15.3-11.1c8.9-5.7,18.2-10.7,28-14.8c14.1-6,28.8-10.1,43.9-12.6c6.6-1.1,13.4-1.8,20.1-2.2c0.7-0.2,1.4,0,2.1-0.2
		c4.4,0,8.8,0,13.2,0c1.2,0,2.4,0.3,3.6,0c0.7,0.3,1.4,0,2.1,0.2c13.6,0.9,27,3,40.2,6.6c13.2,3.6,25.8,8.6,37.9,15
		c10.6,5.6,20.5,12.1,29.8,19.6c7,5.7,13.7,11.7,19.9,18.3c10.8,11.5,20.1,24.2,27.7,38c5.6,10.2,10.3,20.8,13.9,31.8
		c3,9.1,5.3,18.4,6.8,28c0.6,3.8,1,7.7,1.7,11.5c0.2,0.5-0.1,1.2,0.2,1.7c0,0.6,0.1,1.3,0.1,1.9c0.2,0.7-0.1,1.4,0.2,2
		c0,0.8,0.1,1.7,0.1,2.5c0.3,1.1-0.1,2.2,0.2,3.3v16.2c-0.4,1.1,0,2.2-0.2,3.3c0,0.8-0.1,1.7-0.1,2.5c-0.3,0.7,0,1.4-0.2,2
		c0,0.6-0.1,1.3-0.1,1.9c-0.3,0.5,0,1.2-0.2,1.7c-2.1,19.7-7,38.6-15.1,56.7c-9.2,20.7-21.7,39.1-37.6,55.3
		c-23.3,23.8-50.9,40.4-82.9,49.7c-12.5,3.6-25.2,5.9-38.2,6.8c-33.4,2.4-65.3-3.3-95.6-17.6c-18.7-8.8-35.4-20.5-50.2-34.8
		c-15.6-15.1-28.3-32.3-38.1-51.6c-5.2-10.4-9.2-21.2-12.6-32.3c-1.7-5.7-3-11.6-4.2-17.4c-0.8-4.3-1.5-8.7-1.8-13.1
		c-0.2-0.5,0.1-1.1-0.2-1.7l-0.1-1.6c-0.2-0.6,0.1-1.3-0.2-2c0-0.7-0.1-1.3-0.1-2c-0.3-0.9,0.2-1.8-0.2-2.6c0-1,0-1.9-0.1-2.9
		c-0.3-2.1,0.2-4.2-0.2-6.2c0-1.5,0-3,0-4.5c0.4-2.1-0.1-4.2,0.2-6.2c0-1.1,0.1-2.1,0.1-3.2c0.3-0.8,0-1.6,0.2-2.4l0.1-2.2
		c0.3-0.5,0-1.2,0.2-1.7c0-0.5,0.1-1.1,0.1-1.6C11.2,178.5,10.8,177.9,11,177.3"/>
	<path class="st1" d="M190.7,10c-0.7,0.4-1.4,0.2-2.1,0.2C189.2,9.7,189.9,10,190.7,10"/>
	<path class="st1" d="M209.5,10.2c-0.7,0-1.4,0.2-2.1-0.2C208.1,10,208.8,9.7,209.5,10.2"/>
	<path class="st1" d="M383.7,198.5c0.3,101.1-83.3,185.7-187.7,184.1c-99.2-1.6-181.3-82.3-181.5-184
		C14.2,96.9,97.4,14.2,199.9,14.5C302,14.8,383.9,98.2,383.7,198.5"/>
	<path class="st2" d="M377,198.6c0,98.3-80.5,178.7-180.6,177.3c-98-1.4-177.2-82.2-175.2-181C23,100.5,100.1,21,199.3,21.1
		C298.5,21.2,377.1,101.5,377,198.6"/>
	<path class="st0" d="M199.2,81.4c64.8,0,117.4,52.1,117.5,117.1c0,31.5-11.2,59-33.3,81.6c-23.7,24.2-52.7,36.1-86.6,35.6
		C134,314.8,81.2,263.2,81.5,197.8C81.8,133.3,134.9,81,199.2,81.4"/>
	<path class="st1" d="M162.3,50.1c0.4,5.7,0.6,11.5,1.2,17.2c0.2,1.8-1,1.6-1.9,2c-1,0.4-1.5,0.1-2-0.9c-2.4-4.7-4.8-9.4-7.2-14
		c-0.3-0.6-0.5-1.3-1.4-2c0.5,1.9,0.9,3.4,1.4,5c1.1,4,2.3,8,3.4,12.1c0.3,1,0.2,1.5-0.9,1.8c-3.3,0.9-3.3,0.9-4.2-2.4
		c-2.3-8.4-4.7-16.8-7.1-25.2c-0.3-1.2-0.3-1.8,1.1-2c0.7-0.1,1.4-0.4,2-0.5c3-0.8,3-0.8,4.5,2c2.4,4.8,4.9,9.5,7.6,14.2
		c-0.3-3.6-0.6-7.3-0.8-10.9c-0.2-2.3-0.3-4.7-0.6-7c-0.1-1,0.3-1.4,1.2-1.7c1.3-0.3,2.7-0.6,3.9-1.1c1.1-0.4,1.5-0.1,1.8,1
		c1.8,6.7,3.7,13.4,5.6,20.1c0.7,2.5,1.4,5,2.1,7.5c0.2,0.8,0.2,1.1-0.7,1.4c-3.6,1.2-3.6,1.2-4.6-2.5l-4.1-14.4
		c-0.3-0.3-0.4-0.8-0.4-1C162.4,49,162.2,49.6,162.3,50.1"/>
	<path class="st1" d="M364.3,195.8c-2.6,2.9-5,5.5-7.4,8c-0.7,0.7-0.8,1.4-0.6,2.3c0.8,3.4,1.6,6.8,2.4,10.6c-3.5-1.6-6.7-3-9.9-4.5
		c-0.9-0.5-1.6-0.4-2.5,0.1c-3,1.9-6,3.6-9.3,5.5c0.4-3.8,0.8-7.4,1.3-10.9c0.1-1-0.1-1.5-0.8-2.1c-2.7-2.3-5.4-4.7-8.3-7.2
		c3.6-0.7,7-1.4,10.3-2c1.2-0.2,2-0.7,2.5-1.9c1.2-3.2,2.7-6.3,4.2-9.7c1.7,3.1,3.4,5.9,4.9,8.8c0.7,1.4,1.6,2.1,3.2,2.1
		C357.4,195.1,360.6,195.4,364.3,195.8"/>
	<path class="st1" d="M69.2,195.8c-2.3,2.5-4.4,4.9-6.6,7.1c-1.3,1.3-1.7,2.4-1.2,4.3c0.9,3,1.4,6.1,2.2,9.5c-1.2-0.5-2.1-0.9-3-1.3
		c-2.3-1.1-4.7-2.1-7-3.2c-0.9-0.5-1.5-0.4-2.4,0.1c-3.1,1.9-6.2,3.7-9.4,5.6c0.4-3.4,0.7-6.6,1.2-9.7c0.2-1.6,0.1-2.8-1.4-3.9
		c-2.6-2-4.9-4.2-7.6-6.6c3.6-0.7,6.9-1.4,10.2-2c1.4-0.2,2.1-0.8,2.7-2.1c1.2-3.1,2.6-6.2,4.1-9.5c1.9,3.3,3.6,6.4,5.3,9.5
		c0.5,0.8,1,1.3,2,1.4C61.8,195,65.3,195.4,69.2,195.8"/>
	<path class="st1" d="M215.7,52.3c0.5-5.6,1-11.2,1.5-16.9c0.1-1.1,0.3-1.6,1.6-1.4c3.3,0.3,3.3,0.2,2.9,3.6
		c-0.8,8.8-1.6,17.6-2.3,26.5c-0.1,1.1-0.4,1.3-1.4,1.2c-3.7-0.4-3.7-0.4-4.5-4.1c-1.1-5.1-2.2-10.2-3.3-15.3c-1,0.1-0.1,1-0.5,1.3
		c-0.5,5.4-0.9,10.8-1.4,16.2c-0.1,0.8-0.3,1-1.1,1c-3.8-0.2-3.8-0.2-3.4-4c0.8-8.6,1.6-17.2,2.3-25.8c0.1-1.4,0.5-1.7,1.9-1.5
		c3.7,0.3,3.6,0.3,4.3,3.8c1,5.2,2,10.3,3,15.5c0.1,0.1,0.1,0.3,0.2,0.4c0.1,0.1-0.1,0.4,0.2,0.5c-0.1-0.1-0.1-0.3,0-0.4
		C215.5,52.6,215.6,52.5,215.7,52.3"/>
	<path class="st1" d="M125,85.5c-1.3,0.9-2.4,2.4-3.8,2.5c-1.3,0.1-2.4-1.6-3.6-2.5c-2-1.6-4-3.1-5.9-4.8c-1-0.9-1.5-0.3-2.2,0.2
		c-1,0.7-0.1,1.1,0.2,1.6c2,2.8,4,5.6,6.1,8.3c0.6,0.7,0.5,1.1-0.2,1.7c-2.9,2.2-2.9,2.3-5.1-0.7c-5.2-7.1-10.3-14.2-15.5-21.2
		c-0.8-1-0.6-1.5,0.4-2.1c1.7-1.1,3.3-2.4,5-3.6c3.6-2.4,7.4-1.8,10.1,1.6c0.9,1.2,1.8,2.4,2.6,3.6c1.1,1.7,1.6,3.5,1,5.4
		c-0.2,0.8,0.1,1.3,0.7,1.8c3.4,2.6,6.8,5.3,10.2,8C124.8,85.2,124.9,85.2,125,85.5"/>
	<path class="st1" d="M67.5,160.4c-0.2,2.7-1.5,5.7-2.3,8.7c-0.2,0.9-0.9,0.3-1.3,0.2c-8.6-2.5-17.1-5-25.7-7.4
		c-3.1-0.9-3.1-0.9-2.2-4c0.4-1.5,0.8-2.9,1.3-4.4c1.3-3.9,4.4-5.8,8.4-4.8c5.8,1.5,11.5,3.2,17.2,5C65.9,154.5,67.5,157,67.5,160.4
		"/>
	<path class="st1" d="M280.1,54.3c6.2,0,9.8,6.1,6.7,11.5c-2.8,4.9-5.7,9.9-8.6,14.8c-2.3,3.9-6.4,4.9-10.4,2.5
		c-3.8-2.2-4.9-6.3-2.8-10.1c2.9-5.1,5.8-10.1,8.8-15C275.4,55.3,277.4,54.2,280.1,54.3"/>
	<path class="st1" d="M106.3,99.7c-0.3,0.4-0.6,0.7-0.9,1c-2.5,2.5-2.5,2.5-5.3,0.5c-3-2.1-2.9-2.1-5.4,0.6c-0.8,0.9-0.7,1.4,0,2.1
		c1,1.1,1.8,2.3,2.7,3.5c0.5,0.6,0.6,1,0,1.6c-2.6,2.8-2.6,2.8-4.8-0.2c-5.3-7.1-10.5-14.3-15.8-21.4c-0.7-0.9-0.8-1.5,0.2-2.2
		c1-0.9,1.9-1.9,2.9-2.9c0.4-0.5,0.8-0.5,1.4-0.1c8.2,5.7,16.4,11.4,24.6,17C105.9,99.3,106,99.5,106.3,99.7"/>
	<path class="st1" d="M317.9,125.6c-4,0.1-6.8-2-8-5.2c-1.1-2.9-0.5-5.9,2-7.8c5.2-3.8,10.4-7.6,15.7-11.1c3.2-2.1,7.1-1.1,9.5,2.2
		c2.4,3.3,2,7.2-0.9,9.8c-0.3,0.3-0.6,0.5-0.9,0.7c-3.2,2.3-3.2,2.3-5.2-1.1c-0.3-0.6-0.2-0.9,0.3-1.2c0.9-0.6,1.8-1.2,2.6-1.9
		c1.1-1,1.3-2.4,0.5-3.5c-0.9-1.2-2.3-1.6-3.6-0.7c-4.9,3.4-9.8,6.9-14.6,10.4c-1.3,0.9-1.4,2.4-0.6,3.6c0.9,1.2,2.2,1.5,3.6,0.6
		c1.1-0.7,2.2-1.5,3.2-2.2c0.6-0.4,0.8-0.4,1.3,0.2c2.4,3,2.4,3-0.6,5.2C320.5,124.7,318.9,125.6,317.9,125.6"/>
	<path class="st1" d="M78.3,110.1c0.1,2.1-1,3.8-2.3,5.4c-0.6,0.8-0.6,1.2,0.3,1.7c2.8,1.9,5.6,3.9,8.4,5.9c0.7,0.5,0.9,0.8,0.3,1.6
		c-2.1,3-2.1,3.1-5.1,0.9c-7.1-5-14.2-10-21.4-15c-1.1-0.7-1.1-1.2-0.3-2.2c1.3-1.7,2.4-3.5,3.7-5.1c2.5-3.2,6.1-3.9,9.5-1.7
		c1.4,0.9,2.8,1.9,4.1,2.9C77.3,105.9,78.3,107.7,78.3,110.1"/>
	<path class="st1" d="M321.6,138.1c0-3,2-5.8,4.8-6.8c0.6-0.2,0.9-0.1,1.2,0.4c0.2,0.4,0.5,0.7,0.7,1.1c1.2,1.9,1.2,1.9-0.6,3.1
		c-1.6,1.1-1.9,2.8-0.8,4.2c1,1.4,2.6,1.7,4.2,0.6c1.1-0.7,1.8-1.7,2.3-2.9c0.9-2.4,1.7-4.8,2.6-7.2c1.3-3.4,3.4-5.9,7-6.9
		c4.1-1.1,7.6,0.8,8.9,5c1.1,3.5-0.8,7.4-4.4,8.7c-0.5,0.2-0.8,0.2-1.1-0.3c-0.5-0.9-1.1-1.8-1.6-2.6c-0.4-0.5-0.3-0.9,0.3-1.1
		c0.1,0,0.2-0.1,0.3-0.2c1.2-0.6,2.3-1.4,2.1-2.9c-0.1-1-0.6-1.8-1.6-2.1c-1.5-0.5-2.6,0.3-3.7,1.3c-1.1,1-1.5,2.4-2,3.7
		c-1,2.7-1.9,5.4-3.3,8c-1.4,2.6-3.6,4.4-6.6,4.8C325.4,146.6,321.5,143,321.6,138.1"/>
	<path class="st1" d="M72.4,146.9c-0.3-0.1-0.5-0.3-0.8-0.4c-8.7-4.2-17.3-8.4-26-12.5c-1-0.5-1-0.9-0.6-1.8
		c1.7-3.3,3.3-6.6,4.8-9.9c0.4-0.8,0.6-0.9,1.4-0.6c3.3,1.4,3.3,1.4,1.7,4.6c-0.7,1.3-1.3,2.6-1.9,3.9c-0.3,0.6-0.3,0.9,0.4,1.2
		c2,0.9,4,1.9,6,2.9c0.7,0.4,1.1,0.2,1.4-0.5c0.7-1.5,1.4-2.9,2.1-4.4c0.3-0.7,0.6-0.8,1.4-0.5c3.3,1.5,3.3,1.4,1.7,4.7
		c-1.5,3.1-1.5,3.1,1.5,4.6c1.3,0.6,2.6,1.2,3.8,1.9c1,0.6,1.5,0.3,1.9-0.7c0.8-1.8,1.8-3.6,2.6-5.4c0.4-1,0.8-1,1.7-0.5
		c3,1.4,3,1.4,1.5,4.4c-1.3,2.8-2.7,5.6-4.1,8.3C72.9,146.4,72.9,146.9,72.4,146.9"/>
	<path class="st1" d="M191,33.1c1.2-0.4,1.7,0.2,1.6,1.6c0,0.5,0,1.1,0.1,1.6c0.2,0.9-0.2,1.2-1.1,1.3c-2.1,0.1-4.1,0.3-6.2,0.4
		c-1,0-1.3,0.4-1.2,1.4c0.3,2.1,0.5,4.2,0.5,6.3c0,1,0.5,1,1.2,0.9c1.6-0.2,3.1-0.3,4.7-0.4c0.7-0.1,1,0.1,1.1,0.9
		c0.4,3.5,0.5,3.5-3,3.9c-1.1,0.1-2.6-0.3-3.3,0.5c-0.7,0.8,0,2.2,0,3.3c0,1.5,0.3,3,0.3,4.5c0,0.8,0.4,1,1.1,0.9
		c2.2-0.2,4.3-0.3,6.5-0.6c0.9-0.1,1.2,0.2,1.2,1.1c0.2,3.3,0.3,3.3-3.1,3.6c-2.9,0.3-5.9,0.4-8.8,0.8c-1.1,0.1-1.4-0.2-1.5-1.2
		c-0.6-7.3-1.2-14.6-1.8-21.9c-0.2-2.2-0.3-4.3-0.6-6.5c-0.1-1.1,0.1-1.4,1.2-1.5C183.8,33.7,187.3,33.4,191,33.1"/>
	<path class="st1" d="M362.7,159.9c0.1,0.3-0.1,0.5-0.3,0.6c-0.2,0.1-0.3,0.1-0.5,0.2c-3.3,1.2-3.3,1.2-4.3-2.2
		c-0.4-1.4-0.8-2.7-1.2-4.1c-0.2-0.8-0.6-1-1.4-0.8c-2.1,0.7-4.2,1.3-6.3,1.9c-0.8,0.2-0.9,0.5-0.6,1.3c0.5,1.5,0.9,3,1.4,4.5
		c0.2,0.7,0.2,1.1-0.7,1.4c-3.3,1.1-3.3,1.1-4.3-2.2c-1-3.4-1-3.4-4.5-2.4c-1.4,0.4-2.8,0.9-4.2,1.2c-0.8,0.2-0.9,0.5-0.6,1.2
		c0.7,2.1,1.2,4.2,1.9,6.2c0.3,0.9,0.1,1.2-0.8,1.5c-3.2,1-3.2,1-4.2-2.2c-0.8-2.9-1.7-5.7-2.6-8.6c-0.3-0.9-0.1-1.3,0.8-1.5
		c9.3-2.7,18.6-5.5,27.9-8.2c0.7-0.2,1.1-0.2,1.3,0.6c1.1,3.7,2.2,7.4,3.3,11.1C362.7,159.5,362.7,159.7,362.7,159.9"/>
	<path class="st1" d="M299.2,88.9c-0.5-0.4-1.1-0.9-1.6-1.3c-1.1-0.9-2.1-2.5-3.3-2.4c-1.2,0.1-1.9,1.9-2.8,3
		c-1.6,1.9-3.2,3.8-4.8,5.8c-0.6,0.7-0.9,1-1.8,0.2c-2.8-2.3-2.9-2.3-0.5-5.1c5.6-6.7,11.1-13.4,16.7-20.1c0.8-0.9,1.2-1.2,2.2-0.3
		c2.7,2.3,5.4,4.5,8.2,6.8c0.7,0.6,0.8,0.9,0.2,1.6c-2.2,2.7-2.1,2.7-4.9,0.5c-1.3-1-2.5-3-3.9-2.8c-1.2,0.2-2.2,2.2-3.2,3.5
		c-0.8,1-2.3,1.9-2.2,3c0.1,0.9,1.7,1.7,2.6,2.5c2.1,1.8,2.2,1.8,0.2,4C300,88.3,299.9,88.8,299.2,88.9"/>
	<path class="st1" d="M132.3,51.2c-0.1,0.1-0.2,0.3-0.4,0.4c-0.2,0.1-0.4,0.2-0.6,0.3c-1.1,0.6-3,0.9-3.2,1.9
		c-0.2,1,0.9,2.3,1.5,3.5c3.2,6.3,6.3,12.6,9.5,18.9c0.5,1,0.5,1.4-0.6,1.9c-3.1,1.5-3.1,1.6-4.7-1.6c-3.3-6.5-6.6-13-9.8-19.5
		c-0.5-1-0.9-1.4-1.9-0.6c-0.1,0.1-0.2,0.1-0.3,0.1c-3.4,1.7-3.3,1.7-4.8-1.8c-0.3-0.7-0.1-0.9,0.5-1.2c3.9-1.9,7.9-3.9,11.8-5.9
		c0.7-0.4,1-0.3,1.4,0.4C131.2,49.2,131.7,50.2,132.3,51.2"/>
	<path class="st1" d="M238.7,43.4c0.3-1,0-1.1-0.4-1.2c-0.5-0.1-1.1-0.3-1.6-0.4c-2.7-0.7-2.6-0.7-2-3.4c0.3-1.5,0.9-1.7,2.3-1.3
		c3.9,1.2,7.9,2.2,11.8,3.2c0.8,0.2,1,0.4,0.8,1.3c-0.9,3.4-0.8,3.5-4.2,2.5c-1.5-0.5-1.9-0.1-2.2,1.3c-1.9,7.6-4,15.1-6,22.6
		c-0.3,1.1-0.6,1.3-1.7,1c-3.3-0.9-3.3-0.9-2.5-4.1c1.9-7,3.8-14.1,5.6-21.1C238.7,43.6,238.7,43.2,238.7,43.4"/>
	<path class="st3" d="M173.4,340.5c-0.5,3.1-1.1,6.3-1.6,9.4c-0.1,0.5-0.2,1-0.3,1.4c-0.1,0.8-0.6,0.6-1.1,0.6
		c-0.6,0-0.7-0.4-0.6-0.9c0.8-4.8,1.6-9.5,2.3-14.3c0.1-0.6,0.3-0.9,1-0.8c0.7,0.2,1.5-0.1,1.7,1.1c0.3,2.7,0.8,5.4,1.2,8
		c0.1,0.5,0,1.1,0.6,1.8c0.5-2.9,0.9-5.5,1.4-8.2c0.1-0.4,0.1-0.7,0.2-1.1c0.1-0.7,0.6-0.6,1.1-0.6c0.6,0.1,0.7,0.4,0.6,0.9
		c-0.8,4.7-1.6,9.4-2.3,14.1c-0.1,0.6-0.1,1-1,0.9c-0.7-0.1-1.1-0.3-1.3-1.1c-0.5-3.8-1.1-7.5-1.6-11.3L173.4,340.5z"/>
	<path class="st3" d="M127,329.4c1.4-2.4,2.8-4.9,4.2-7.3c0.3-0.6,0.5-1,1.3-0.5c0.9,0.5,0.5,0.9,0.2,1.4c-2.3,4-4.6,8-6.9,12
		c-0.2,0.4-0.2,1.2-1.1,0.8c-0.7-0.3-1.3-0.7-1-1.7c0.8-3.3,1.4-6.6,2.1-9.9c0.1-0.4,0.1-0.7-0.1-1.2c-0.8,1.4-1.6,2.8-2.4,4.2
		c-1,1.7-2,3.4-2.9,5.1c-0.3,0.5-0.4,0.8-1.1,0.4c-0.5-0.3-0.9-0.6-0.5-1.2c2.4-4.2,4.8-8.4,7.2-12.6c0.3-0.5,0.5-0.9,1.1-0.4
		c0.5,0.4,1.5,0.4,1.3,1.6c-0.6,2.5-1.1,5.1-1.6,7.6c-0.1,0.4-0.1,0.9-0.2,1.3C126.5,329.4,126.5,329.7,127,329.4"/>
	<path class="st3" d="M285.5,314.2c2.2,2.8,4.3,5.6,6.5,8.4c0.4,0.5,0.8,0.8,0,1.4c-0.8,0.6-1,0.1-1.4-0.4c-2.8-3.7-5.7-7.3-8.5-11
		c-0.3-0.3-1.1-0.7-0.3-1.3c0.6-0.4,1.1-1.4,2.2-0.6c2.4,1.8,4.9,3.4,7.4,5.1c0.2,0.1,0.4,0.3,0.9,0.6c-0.6-1.4-1.5-2.3-2.3-3.3
		c-1.1-1.4-2.2-2.8-3.3-4.3c-0.3-0.4-0.7-0.8,0-1.3c0.7-0.5,1-0.2,1.4,0.3c2.9,3.7,5.7,7.4,8.6,11.1c0.3,0.3,0.8,0.7,0.2,1.2
		c-0.5,0.4-0.9,1-1.8,0.4c-2.4-1.7-4.8-3.4-7.2-5.1c-0.7-0.5-1.5-1-2.3-1.5C285.6,314,285.6,314.1,285.5,314.2"/>
	<path class="st3" d="M232.4,339.9c0.8,3.1,1.5,6.1,2.2,9.2c0.1,0.5,0.6,1.3-0.5,1.5c-1,0.3-1-0.4-1.2-1.1
		c-1.1-4.3-2.2-8.6-3.2-12.9c-0.1-0.5-0.8-1.2,0.2-1.6c0.9-0.3,1.7-0.7,2.3,0.5c1.6,2.9,3.4,5.6,5.4,8.4c-0.5-2.1-1-4.1-1.5-6.2
		c-0.3-1.1-0.5-2.1-0.8-3.1c-0.2-0.6,0-1,0.7-1.2c0.7-0.2,0.8,0.2,1,0.7c1.1,4.6,2.3,9.3,3.5,13.9c0.1,0.5,0.2,0.9-0.5,1.1
		c-0.8,0.2-1.3,0.2-1.7-0.6c-1.8-3-3.7-6-5.6-9C232.2,339.3,232.2,339.5,232.4,339.9"/>
	<path class="st3" d="M317.8,274.7c2.1,0,4.9,2.1,5.5,3.9c0.1,0.3-0.2,1,0.5,0.7c1.8-0.6,3,0.5,4.3,1.3c0.6,0.4,1.2,0.7,1.8,1.2
		c0.3,0.2,1.3,0,0.7,1c-0.4,0.6-0.8,1.2-1.7,0.6c-1-0.7-2.1-1.4-3.1-2c-1-0.6-1.9-0.6-2.8,0.3c-0.7,0.9-1,1.5,0.3,2.2
		c1.3,0.7,2.4,1.6,3.7,2.4c0.5,0.3,0.9,0.6,0.4,1.3c-0.4,0.5-0.7,0.9-1.4,0.4c-4-2.7-7.9-5.3-11.9-8c-0.3-0.2-0.8-0.4-0.5-0.9
		c1-1.5,1.7-3.2,3.3-4.2C317.2,274.8,317.7,274.8,317.8,274.7"/>
	<path class="st3" d="M95.2,293.4c-0.1,0.9-0.4,1.8-1.1,2.4c-2.4,2.1-4.7,4.3-7.2,6.3c-1.6,1.3-3.3,1.1-4.8-0.4
		c-2.9-2.9-2.9-2.9,0.2-5.5c2.8-2.5,5.6-4.9,8.4-7.4c0.7-0.6,1.1-0.7,1.6,0.1c0.6,0.8,1.3,1.5,1.9,2.2
		C94.8,291.9,95.1,292.6,95.2,293.4"/>
	<path class="st3" d="M166.4,337.2c-0.5,1.6-0.2,3.9-2.5,4.9c-0.4,0.2-0.3,0.4-0.1,0.6c1,1.3,0.6,2.7,0.3,4
		c-0.2,0.9-0.4,1.8-0.7,2.7c-0.1,0.4,0.1,1-0.6,0.8c-0.6-0.1-1.2-0.2-1.2-1.1c0.1-1.3,0.6-2.5,0.8-3.8c0.3-1.6-0.7-2.9-2.3-2.9
		c-0.6,0-0.6,0.4-0.7,0.9c-0.4,1.6-0.9,3.1-1.2,4.7c-0.2,0.7-0.4,1-1.2,0.8c-0.8-0.2-0.8-0.5-0.6-1.3c1.2-4.5,2.4-9.1,3.6-13.7
		c0.2-0.7,0.4-1,1.2-0.7c1.1,0.4,2.2,0.6,3.3,0.9C165.7,334.5,166.5,335.4,166.4,337.2"/>
	<path class="st3" d="M64.9,239.3c0.1,1.4-0.7,2.4-2,2.9c-3.2,1.2-6.5,2.1-9.8,2.8c-1.9,0.4-3.1-0.5-3.8-2.3c-1.5-3.9-1.4-3.9,2.5-5
		c3.5-1,7.1-2,10.6-3.1c1-0.3,1.5-0.1,1.7,0.9C64.3,236.7,64.9,237.9,64.9,239.3"/>
	<path class="st3" d="M226.2,348.3c0,2.9-1,4.2-3.2,4.5c-2,0.3-3.7-0.7-4.1-2.8c-0.6-3.2-1.1-6.4-1.5-9.6c-0.3-2.2,1-3.5,3.1-3.9
		c2.2-0.3,3.7,0.5,4.2,2.6C225.3,342.4,225.8,345.7,226.2,348.3"/>
	<path class="st3" d="M83.4,279.4c1.7,0.1,2.7,1.1,3.3,2.5c0.7,1.5,0.4,2.8-0.8,3.8c-1.6,1.3-3.3,2.5-4.9,3.8
		c-1,0.8-2.1,1.6-3.2,2.3c-1.8,1.1-3.7,0.7-4.9-1c-1.3-1.7-1.2-3.6,0.5-4.9c2.6-2.1,5.3-3.9,8-5.9C82,279.6,82.7,279.4,83.4,279.4"
		/>
	<path class="st3" d="M55.6,259.9c-0.9-1.1-0.9-1.9,0.4-2.5c0.5-0.3,1.5-0.4,1.3-1.2c-0.3-1.1-0.7-2.2-1.3-3.1c-0.4-0.5-1.3,0-2,0.2
		c-0.8,0.2-1.4,0.2-1.6-0.8c-0.3-1.2,0.8-0.8,1.2-0.9c4.5-0.9,9.1-1.7,13.6-2.6c1-0.2,1.3,0.2,1.6,1c0.3,0.7,0.6,1.3-0.3,1.9
		C64.2,254.4,59.9,257.2,55.6,259.9"/>
	<path class="st1" d="M192.4,353.5c0,0.3,0.2,0.9-0.5,0.8c-0.6-0.1-1.5,0.1-1.4-0.9c0.3-2.3-1-2.6-2.9-2.6c-1.1,0-1.6,0.1-1.7,1.2
		c0,0.4-0.2,0.8-0.3,1.3c-0.2,1-0.9,0.6-1.4,0.5c-0.8-0.1-0.3-0.7-0.2-1c1-3.9,2-7.7,3-11.6c0.2-0.6,0.4-1.1,0.5-1.7
		c0.2-1.1,0.5-1.7,1.8-1.6c1.4,0.1,1.4,0.9,1.5,1.8C191.3,344.3,191.9,348.9,192.4,353.5"/>
	<path class="st3" d="M244.5,331.6c-0.2-1.1,0.8-0.9,1.4-1.3c0.6-0.3,1.1-0.3,1.5,0.4c2.4,4.2,4.9,8.5,7.4,12.7
		c0.2,0.3,0.5,0.8,0,0.9c-0.4,0.2-0.9,0.7-1.5,0.2c-0.2-0.2-0.4-0.5-0.5-0.8c-0.5-1.5-1.4-1.6-2.9-1.1c-1.5,0.5-2.2,1.2-1.5,2.8
		c0.4,0.9,0,1.5-1,1.6c-1,0.1-0.6-0.8-0.7-1.3C245.9,341,245.2,336.3,244.5,331.6"/>
	<path class="st3" d="M280.8,331c-1.3,0-2.2-0.6-2.9-1.6c-2.2-3.4-4.3-6.8-6.5-10.1c-0.4-0.6-0.2-0.9,0.3-1.3c0.7-0.5,1-0.3,1.4,0.4
		c1.8,2.9,3.7,5.8,5.5,8.7c0.3,0.4,0.5,0.8,0.8,1.2c0.7,0.9,1.5,1.3,2.5,0.6c1.1-0.7,1.1-1.6,0.5-2.5c-2-3.2-4.1-6.4-6.1-9.6
		c-0.2-0.4-0.7-0.7-0.5-1.1c0.2-0.3,0.7-0.6,1-0.7c0.4-0.2,0.5,0.3,0.7,0.5c2.1,3.3,4.3,6.6,6.3,10
		C285.5,328.1,283.8,331.1,280.8,331"/>
	<path class="st3" d="M309.2,304.4c-2.2-3.1-4.5-6.3-6.7-9.4c-0.2-0.2-0.3-0.5-0.5-0.7c-0.5-0.6-0.1-1,0.3-1.4
		c0.6-0.6,0.9,0,1.1,0.4c2.8,3.9,5.6,7.9,8.4,11.8c0.7,1-0.1,1.3-0.5,1.9c-0.5,0.6-0.8,1-1.7,0.4c-3.9-2.6-7.9-5.2-11.8-7.8
		c-0.4-0.2-1.4-0.4-0.6-1.3c0.5-0.6,0.9-0.9,1.7-0.3c3,2,6,4,9,5.9c0.4,0.3,0.8,0.5,1.2,0.7C309.1,304.6,309.1,304.5,309.2,304.4"/>
	<path class="st3" d="M332,269.9c-1.6,0-2.8,0.7-4,1.2c-2.1,0.8-4.1,0.5-5.7-1.1c-1.5-1.4-1.5-3.3-0.1-4.9c1.2-1.4,3.2-1.6,4.7-0.6
		c0.5,0.4,0.4,0.6,0.2,1c-0.2,0.4-0.3,1-1,0.6c-0.3-0.2-0.7-0.3-1.1-0.4c-0.8-0.1-1.4,0.2-1.7,0.9c-0.3,0.7-0.3,1.4,0.3,1.9
		c1,0.9,2.1,1.3,3.4,0.9c1.2-0.4,2.4-0.9,3.5-1.2c1.8-0.6,3.4-0.2,4.9,1c1.7,1.4,1.8,3.6,0.3,5.3c-1.2,1.4-3.8,1.5-5.2,0.2
		c-0.3-0.3-0.4-0.5-0.2-0.8c0.2-0.3,0.2-0.9,0.9-0.8c0.2,0,0.3,0.1,0.5,0.2c0.9,0.5,1.8,0.9,2.7,0c0.5-0.5,0.9-1.2,0.5-1.9
		C334.1,270.4,333.1,270,332,269.9"/>
	<path class="st3" d="M312.7,291.8c0.7-0.8,1.3-1.5,1.9-2.3c0.4-0.6,0.7-0.6,1.3-0.2c0.6,0.5,0.4,0.8,0,1.3
		c-1.8,2.4-1.8,2.4,0.5,4.2c1.9,1.6,1.9,1.6,3.6-0.4c0.3-0.4,0.7-0.7,0.9-1.1c0.4-0.6,0.7-0.5,1.2-0.1c0.4,0.3,0.7,0.6,0.2,1.2
		c-1.1,1.3-2.2,2.7-3.3,4.1c-0.4,0.6-0.7,0.4-1.2,0.1c-3.8-3-7.5-6.1-11.3-9.1c-0.5-0.4-0.6-0.7-0.1-1.2c1.1-1.3,2.2-2.6,3.2-3.9
		c0.4-0.5,0.7-0.6,1.2-0.2c0.4,0.4,0.8,0.7,0.2,1.3c-0.7,0.7-1.2,1.6-1.9,2.3c-0.6,0.6-0.5,1,0.2,1.5
		C310.5,290,311.6,290.9,312.7,291.8"/>
	<path class="st1" d="M149,346.3c-1.5-0.6-3.4-1.2-5.2-1.9c-0.6-0.2-0.2-0.7-0.1-1c1.6-4.5,3.2-9,4.8-13.5c0.3-0.8,0.7-0.8,1.3-0.5
		c1.5,0.6,3,1.1,4.5,1.6c0.6,0.2,0.9,0.4,0.6,1.1c-0.3,0.7-0.6,0.8-1.2,0.5c-0.1,0-0.2-0.1-0.3-0.1c-1.1-0.3-2.7-1.5-3.2-0.9
		c-1,1.1-1.2,2.8-1.8,4.3c-0.2,0.6,0.2,0.6,0.6,0.7c0.7,0.2,1.3,0.5,2,0.7c0.5,0.2,1,0.3,0.7,1.1c-0.3,0.6-0.5,0.8-1.2,0.6
		c-2.9-0.9-2.9-0.8-3.9,2c-0.1,0.3-0.2,0.6-0.3,0.9c-0.5,1-0.3,1.5,0.9,1.8c0.9,0.2,1.7,0.6,2.6,0.9c0.5,0.2,0.6,0.5,0.4,0.9
		C150,345.9,150,346.5,149,346.3"/>
	<path class="st1" d="M340.9,238.4c-1.7-1.1-3.4-2.3-5.2-3.4c-1.1-0.6-1.5-1.3-0.6-2.5c2.4,1.6,4.8,3.1,7.1,4.8
		c2,1.5,4.3,1.8,6.5,2.5c0.6,0.2,1,0.4,0.7,1.1c-0.2,0.4-0.1,1.1-0.9,0.7c-4.8-2.1-9.8-1-14.7-1c-0.3,0-1,0.3-1-0.4
		c0-0.5,0-1.2,0.7-1.3c0.4-0.1,0.9-0.1,1.3-0.1c2,0,4,0,6,0C340.9,238.7,340.9,238.5,340.9,238.4"/>
	<path class="st3" d="M73,278c-0.6-0.2-0.8-0.9-1.1-1.4c-0.6-1.3-1.3-1.7-2.5-0.7c-1.1,0.9-2.4,1.5-3.6,2.2c-0.7,0.5-1,0.3-1.4-0.4
		c-0.4-0.6-0.2-0.9,0.3-1.3c4.1-2.5,8.2-4.9,12.3-7.4c0.7-0.4,1-0.3,1.4,0.4c0.7,1.3,1.5,2.5,2.3,3.7c0.3,0.5,0.7,0.9-0.1,1.4
		c-0.9,0.6-1.1-0.1-1.4-0.6c-1.8-2.8-1.8-2.8-4.6-1.1c-2,1.2-2,1.2-0.8,3.3C74.3,277.1,74,277.9,73,278"/>
	<path class="st1" d="M68.1,266.3c0.2,0.7-0.3,0.7-0.6,0.9c-0.3,0.2-0.6,0.3-0.9-0.1c-0.2-0.2-0.3-0.5-0.4-0.7
		c-1.2-2.1-1.2-2.1-3.5-1c-1,0.5-2.1,1-3.1,1.6c-0.6,0.3-0.9,0.2-1.2-0.4c-0.3-0.6-0.3-0.9,0.4-1.3c4.3-2.1,8.7-4.3,13-6.5
		c0.6-0.3,0.9-0.2,1.1,0.4c0.7,1.5,1.4,2.9,2.2,4.4c0.3,0.6,0.1,0.9-0.4,1.1c-0.5,0.3-0.9,0.3-1.1-0.4c0,0-0.1-0.1-0.1-0.1
		c-0.6-1-0.9-2.9-1.8-2.9c-1.6,0.2-3.1,1.3-4.6,2c-0.5,0.3-0.2,0.6-0.1,0.9C67.4,265,67.8,265.7,68.1,266.3"/>
	<path class="st4" d="M200,347.1c0-1.9-0.1-3.8,0-5.7c0.1-1.3-0.5-1.6-1.6-1.4c-0.6,0.1-1.3,0.4-1.4-0.7c0-1,0.7-1,1.3-1
		c1.9-0.1,3.8-0.1,5.7-0.1c0.6,0,0.9,0.2,0.9,0.8c0,0.6-0.1,0.8-0.8,0.9c-2.2,0.2-2.2,0.3-2.2,2.5c0.1,3.6,0.1,7.3,0.2,10.9
		c0,0.7,0,1.1-0.9,1.1c-0.8,0-1-0.3-1-1c0-2.1,0-4.2,0-6.3H200z"/>
	<path class="st3" d="M143.4,328.7c-0.1-0.1-0.3-0.1-0.5-0.3c-1.6-1.1-2.1-0.2-2.7,1.2c-1.5,3.3-3,6.6-4.5,9.9
		c-0.3,0.5-0.3,1.5-1.4,0.9c-1.1-0.5-0.6-1-0.3-1.7c1.6-3.5,3.2-7,4.9-10.5c0.6-1.2,0.4-1.7-0.8-2.1c-0.5-0.2-1.5-0.2-1-1.2
		c0.3-0.6,0.5-0.9,1.2-0.5c1.9,0.9,3.7,1.7,5.6,2.6c0.4,0.2,0.7,0.4,0.4,0.8C144.1,328.2,144.1,328.8,143.4,328.7"/>
	<path class="st3" d="M345.3,253.5c-0.3,0.9-0.4,1.5-1.6,1c-3.6-1.5-7.3-2.8-10.9-4.2c-1.1-0.5-1.8-0.4-2,0.9
		c-0.2,0.8-0.4,1.5-1.5,1c-0.4-0.2-0.6-0.4-0.4-0.9c0.8-2,1.5-3.9,2.3-5.9c0.3-0.7,0.7-0.6,1.3-0.4c0.7,0.3,0.6,0.6,0.3,1.1
		c-1,1.6-0.3,2.2,1.3,2.7c3.5,1.2,6.9,2.6,10.4,3.9C344.7,252.9,345.3,252.9,345.3,253.5"/>
	<path class="st3" d="M255.6,326.4c0.8,0,0.8,0.6,1,1c1.6,3.5,3.3,7.1,4.9,10.7c0.5,1.1,0.9,1.3,1.9,0.7c0.6-0.4,1.3-0.6,1.9-0.9
		c0.6-0.3,1-0.5,1.4,0.4c0.4,0.9-0.2,1-0.7,1.3c-1.3,0.6-2.6,1.1-3.9,1.8c-0.7,0.4-1.1,0.3-1.5-0.5c-1.9-4.3-3.9-8.6-5.9-12.9
		C254.1,326.7,255.1,326.8,255.6,326.4"/>
	<path class="st3" d="M107,303.8c-0.3,0.4-0.6,0.8-0.8,1.1c-2.6,3-5.1,6-7.7,8.9c-0.7,0.8-0.7,1.3,0.2,1.9c0.6,0.4,1.2,1,1.8,1.5
		c0.4,0.4,0.8,0.6,0.2,1.3c-0.5,0.6-0.9,0.6-1.4,0.1c-1.1-1-2.3-2-3.5-3c-0.6-0.5-0.6-0.7-0.1-1.3c3.2-3.7,6.3-7.3,9.5-11
		c0.2-0.2,0.4-0.6,0.8-0.4C106.2,303.1,106.5,303.5,107,303.8"/>
	<path class="st5" d="M100.2,297.6c0.4,0.4,0.8,0.7,1.1,1c0.3,0.4-0.1,0.6-0.3,0.8c-3.4,3.4-6.8,6.9-10.1,10.3
		c-0.5,0.5-0.8,0.6-1.3,0c-0.5-0.5-0.7-0.8-0.1-1.4c3.3-3.3,6.6-6.7,9.9-10.1C99.7,298.1,99.9,297.9,100.2,297.6"/>
	<path class="st5" d="M121.8,315.4c-0.2,0.3-0.4,0.6-0.6,0.9c-2.5,3.7-5,7.5-7.6,11.2c-0.4,0.6-0.7,1.2-1.6,0.6
		c-0.9-0.6-0.3-1.1,0-1.6c2.6-3.8,5.1-7.7,7.7-11.5c0.2-0.3,0.4-0.9,0.9-0.6C121.2,314.6,121.7,314.8,121.8,315.4"/>
	<path class="st3" d="M327,256.5c0.3,0.1,0.6,0.3,0.9,0.4c4.1,1.9,8.2,3.7,12.3,5.6c0.6,0.3,1.3,0.4,0.8,1.5
		c-0.5,1.1-1.1,0.5-1.7,0.2c-4.2-1.9-8.4-3.8-12.6-5.8c-0.4-0.2-1-0.3-0.6-1C326.3,257.1,326.2,256.4,327,256.5"/>
	<path class="st3" d="M212.8,352.1c0,0,0,0.3,0,0.6c0,0.6,0.3,1.1-0.7,1.2c-0.9,0.1-1.1-0.4-1.1-1.1c-0.4-4.6-0.7-9.2-1.1-13.8
		c0-0.6-0.2-1.2,0.8-1.2c0.9,0,1.1,0.4,1.1,1.1C212,343.2,212.4,347.5,212.8,352.1"/>
	<path class="st3" d="M291.7,303.5c0.9-1.5,1.6-1.2,2.5-0.1c2.9,3.3,5.9,6.6,8.8,9.9c0.4,0.4,1.1,0.8,0.2,1.5
		c-0.8,0.7-1.2,0.3-1.7-0.3C298.3,310.9,295,307.2,291.7,303.5"/>
	<path class="st6" d="M215.7,52.3v1.5c-0.5-0.5-0.6-0.9-0.6-1.5C215.3,52.3,215.5,52.3,215.7,52.3"/>
	<path class="st7" d="M209.5,47.2c0-0.5,0-1.1,0-1.6c0-0.2,0.3-0.4,0.5-0.1c0.1,0.1,0,0.3,0.1,0.5C209.6,46.2,209.9,46.9,209.5,47.2
		"/>
	<path class="st8" d="M162.3,50.1c-0.3-0.5-0.2-1.1-0.2-1.9c0.4,0.5,0.6,1,0.6,1.5C162.5,49.9,162.4,50,162.3,50.1"/>
	<path class="st9" d="M127,329.4c-0.1,0.3-0.2,0.7-0.6,0.8c-0.1-0.5-0.1-0.9,0.2-1.2C126.7,329.1,126.9,329.3,127,329.4"/>
	<path class="st10" d="M232.4,339.9c-0.3-0.3-0.4-0.7-0.2-1.1c0.4,0.1,0.5,0.4,0.6,0.8C232.6,339.6,232.5,339.8,232.4,339.9"/>
	<path class="st1" d="M314.6,198.6c0.3,62.8-51.7,116-117.1,115.1c-62.3-0.8-114-51.4-114-115.2c0-64.6,53.1-115.9,116.8-115.2
		C263.8,83.9,314.9,136,314.6,198.6"/>
	<path class="st11" d="M104.2,68.1c2-0.1,5.7,4.9,5.1,6.7c-0.5,1.3-1.8,1.9-2.8,2.6c-0.4,0.3-0.6-0.2-0.7-0.4
		c-1.5-2.1-3-4.1-4.5-6.2c-0.2-0.2-0.6-0.5-0.2-0.8C102,69.2,102.9,68.2,104.2,68.1"/>
	<path class="st2" d="M44.4,153.2c0.9,0.2,2.1,0.6,3.2,0.9c4.2,1.2,8.5,2.4,12.7,3.7c2.6,0.8,3.4,3.3,1.9,5.5
		c-0.3,0.5-0.6,0.3-1,0.2c-6.5-1.9-13-3.8-19.5-5.7c-0.3-0.1-0.6-0.1-0.7-0.5C40.5,155.7,42.4,153.2,44.4,153.2"/>
	<path class="st2" d="M271.7,79.6c-2.1,0-3.6-2.1-2.6-4c2.9-5.2,6-10.3,9-15.5c0.9-1.5,2.3-1.7,3.7-0.9c1.4,0.8,1.9,2.2,1.1,3.6
		c-2.9,5.1-5.9,10.2-8.9,15.3C273.5,79.1,272.7,79.6,271.7,79.6"/>
	<path class="st12" d="M84.4,89.8c2.8,2,5.6,4,8.4,6c0.6,0.4,0.5,0.7,0.1,1.2c-0.3,0.3-0.6,0.5-0.8,0.8c-0.8,1.1-1.4,1-2.2-0.1
		c-1.8-2.6-3.8-5.1-5.8-7.6L84.4,89.8z"/>
	<path class="st11" d="M73.6,110.2c-0.2,1.4-1.1,2.4-1.9,3.4c-0.3,0.4-0.7,0-1-0.2c-2.1-1.5-4.2-2.9-6.3-4.4
		c-0.6-0.4-0.6-0.7-0.2-1.3c0.6-0.7,0.9-1.5,1.6-2c0.4-0.3,0.9-0.5,1.5-0.5c1.2,0.1,5.5,3.1,5.9,4.2C73.5,109.7,73.5,110,73.6,110.2
		"/>
	<path class="st12" d="M321.9,279.5c-0.3,2.2-1.3,2.7-2.8,1.7c-0.7-0.5-1.4-0.8-2-1.4c-0.4-0.4-1.7-0.4-0.9-1.6
		c0.7-0.9,1.2-2.1,2.7-1.3c0.9,0.4,1.6,1.1,2.4,1.6C321.8,278.8,321.9,279.4,321.9,279.5"/>
	<path class="st11" d="M84.6,301.3c-1.1-0.1-1.7-1-2.2-1.8c-0.5-0.9,0.5-1,0.9-1.4c2.3-2.1,4.7-4.2,7.1-6.2c0.4-0.4,0.8-1.5,1.6-0.5
		c0.8,0.8,1.9,1.7,1,3.1c-0.2,0.4-0.6,0.6-0.9,0.9c-1.9,1.7-3.8,3.3-5.6,5C85.9,300.7,85.3,301.1,84.6,301.3"/>
	<path class="st13" d="M164.6,337.4c-0.3,0.8-0.5,1.9-0.9,2.9c-0.5,1-2.4,1.3-3.3,0.5c-0.4-0.3-0.2-0.6-0.1-0.9
		c0.3-1.2,0.5-2.3,0.9-3.4c0.2-0.5-0.1-1.6,1.2-1.2C163.4,335.5,164.5,335.7,164.6,337.4"/>
	<path class="st11" d="M52.8,243.2c-1.9,0-2-1.3-2.4-2.4c-0.4-1.3,0.8-1,1.4-1.2c3-0.9,6-1.8,9.1-2.6c0.5-0.2,1.3-0.9,1.7,0.1
		c0.4,1,1,2-0.1,3c-0.4,0.4-0.9,0.5-1.5,0.7C58.3,241.6,55.5,242.5,52.8,243.2"/>
	<path class="st11" d="M219.3,340.7c-0.1-1.6,0.4-2.3,1.6-2.5c1.1-0.1,1.8,0.5,2,1.5c0.5,3.1,1,6.2,1.4,9.3c0.1,1-0.3,1.8-1.5,2
		c-1.2,0.2-1.9-0.4-2.1-1.5C220.2,346.5,219.7,343.3,219.3,340.7"/>
	<path class="st11" d="M75.8,290.6c-0.9-0.1-1.4-0.5-1.7-1.2c-0.4-0.9,0-1.6,0.7-2.2c1.7-1.3,3.5-2.6,5.2-3.9
		c0.9-0.6,1.7-1.3,2.7-1.8c0.8-0.4,1.6-0.2,2.2,0.6c0.5,0.8,0.6,1.6-0.1,2.2c-2.6,2.2-5.4,4.2-8.3,6.1
		C76.2,290.5,75.9,290.5,75.8,290.6"/>
	<path class="st14" d="M57.7,252.4c2.7-0.5,5.2-1.2,8-1.1c-2,1.3-4.1,2.6-6.1,3.9c-0.6,0.4-0.7,0.1-0.9-0.4
		C58.3,254.1,58,253.4,57.7,252.4"/>
	<path class="st15" d="M189.1,341.5c0.3,2.2,0.5,4.4,0.8,6.6c0.1,0.9,0.1,1.4-1,1.2c-0.4-0.1-0.8-0.1-1.1-0.1
		c-1,0.1-1.2-0.4-0.9-1.3c0.6-2,1.1-4.1,1.7-6.1C188.7,341.6,188.8,341.3,189.1,341.5"/>
	<path class="st16" d="M189.1,341.5c-0.2,0.1-0.4,0.2-0.6,0.3c0-0.4,0.1-0.8,0.5-1.1C189.1,341,189.1,341.2,189.1,341.5"/>
	<path class="st14" d="M246.7,333.3c1.3,2.2,2.6,4.3,3.9,6.5c0.3,0.5,0.2,0.8-0.3,1c-0.4,0.1-0.7,0.2-1.1,0.4
		c-1.3,0.7-1.6,0.2-1.8-1.1c-0.2-2.2-0.6-4.4-1-6.6C246.5,333.3,246.6,333.3,246.7,333.3"/>
	<path class="st17" d="M141.6,193.9c0.8-5.4,2.3-10.5,3.2-15.7c1.6-9.7,1-19.2-1.7-28.7c-1.2-4.3-2.7-8.4-4.6-12.3
		c-0.4-0.9-0.3-1.6,0.4-2.3c4.8-5,9.6-9.9,14.4-14.9c0.6-0.6,1.2-0.9,2-0.9c30.2,0,60.3,0,90.5,0c0.8,0,1.4,0.3,2,0.9
		c5,5.3,10.1,10.5,15.2,15.7c0.7,0.7,0.7,1.1,0.2,1.9c-6.2,9-9.3,19-9.8,29.9c-0.5,9.3,1.1,18.2,3.4,27.6c1.2-1.6,2.2-2.7,3.4-3.8
		c2.1-1.8,4.3-3.4,7.2-3.3c2.2,0.1,3.9,1.1,5,3.1c1.3,2.2,1.2,4.7,2,7c1.3,4.1,2.6,8.2,5.5,11.5c0.2,0.2,0.3,0.5,0.4,0.7
		c0.2,2.6-2.4,5.6-5.1,5.8c-1,0.1-1.5,0.2-1.5,1.4c0,8.3-3.2,15.3-8.6,21.4c-8.6,9.8-19.4,15.9-31.8,19.6
		c-12.5,3.8-23.7,9.7-33.5,18.4c-0.8,0.7-1.1,0.7-1.9-0.1c-3.7-4-8.2-6.9-12.9-9.6c-7.4-4.2-15.4-6.8-23.3-9.7
		c-8.8-3.3-17.2-7.4-24.5-13.5c-7.9-6.7-13-15-13.4-25.6c0-1.1-0.3-1.8-1.5-2.3c-2.3-0.9-3.2-3.2-4.1-5.2c-0.2-0.4,0.1-0.7,0.3-1
		c2.8-4.9,4.6-10.2,6.3-15.5c1.6-5,5.7-7,10.5-4.9C137.4,190.5,139.5,192.1,141.6,193.9"/>
	<path class="st2" d="M199.8,122.5c14.3,0,28.6,0,42.9,0c1.1,0,1.9,0.3,2.7,1.1c4.3,4.4,8.7,8.7,13.1,13.1c0.5,0.5,1,0.9,0.3,1.7
		c-4.6,5.9-6.8,12.7-8,19.9c-2.1,12.4-0.6,24.5,2.1,36.7c1.9,8.7,1.3,17.1-4.1,24.6c-3.7,5.2-9,8.5-14.6,11.3
		c-5.8,2.9-11.9,5.1-18.1,7.1c-5.8,1.9-11,4.7-15.7,8.5c-1.3,1.1-2,1.2-3.4,0c-5-4.5-10.9-7.5-17.2-9.7c-6.8-2.4-13.7-4.8-20-8.4
		c-5.6-3.2-10.5-7.2-13.3-13.2c-2.4-5-2.9-10.3-1.7-15.7c2-9.1,4-18.1,4.5-27.4c0.6-11.5-1.6-22.6-6.3-33.1c-0.6-1.2-0.5-2,0.5-3
		c3.8-4.1,7.6-8.3,11.3-12.4c0.7-0.8,1.4-0.8,2.3-0.8C171.2,122.5,185.5,122.5,199.8,122.5"/>
	<path class="st0" d="M268.1,200.2c-0.8-1.7-1.6-3.4-2.3-5.1c-0.4-0.8-0.8-0.8-1.5-0.4c-2.4,1.4-3.7,4.7-2.9,7.5
		c0.7,2.5,2.2,4.6,3.6,6.8c1.3,2,2.6,4.1,4.1,6.1c2.3,3.2,2.4,6.5,1.2,10.1c-2.1,6.1-5.6,11.2-10.3,15.4c-9.4,8.6-20.5,14-32.6,17.6
		c-9.6,2.9-18.1,8-25.8,14.3c-0.9,0.8-1.8,2-2.8,2.1c-0.7,0.1-1.6-1.4-2.4-2.2c-4.5-4.2-9.9-7-15.5-9.6c-5.8-2.7-11.9-4.6-17.8-6.9
		c-10.7-4.1-20.6-9.5-28.4-18c-4.1-4.4-7.1-9.5-8.1-15.5c-0.6-3.7-0.2-7.2,2.3-10.3c1.8-2.2,3.6-4.2,5.6-6.2
		c2.6-2.5,2.6-8.2,0.2-10.6c-0.9-0.8-1.6-1.1-2.3,0.2c-0.7,1.1-1.4,2.2-2.1,3.3c-0.4,0.6-0.7,0.7-1.2,0.1c-1.1-1.1-1.7-2.4-2.1-3.8
		c-0.2-0.8,0.3-1.4,0.7-1.9c3-3.4,8.3-2.6,10.7,1.6c1.4,2.6,2.1,5.4,2.2,8.3c0.4,7.9,2.9,14.8,8.4,20.7c3.9,4.2,8.6,7.4,13.6,10
		c6.2,3.3,13,5.4,19.3,8.4c5.8,2.7,11.4,6,16,10.5c0.4,0.3,0.5,0.6,1,0.1c6.7-6.7,15.4-9.8,24.1-12.9c7.9-2.8,15.5-6.2,22.2-11.3
		c8.3-6.2,12.5-14.5,12.6-24.9c0-4.6,1.5-8.6,5.4-11.5c1.2-0.8,2.5-1.3,4-1.3c2.6,0,4,1.6,3.6,4.2c-0.3,1.8-1.1,3.5-2.2,5
		C268.3,200.3,268.2,200.3,268.1,200.2"/>
	<path class="st18" d="M266.8,201.5c-0.9,0.7-1.9,1-3,0.9c-1.4,0-1.9-0.7-1.5-2c0.1-0.2,0.2-0.4,0.3-0.6c0.5-1,1.1-2.3,2-2.4
		c0.9-0.1,1,1.5,1.5,2.2c0.3,0.4,0.5,1,0.8,1.4C266.9,201.3,266.9,201.4,266.8,201.5"/>
	<path class="st19" d="M134.5,199.3c0,1.2-0.5,1.9-1.7,1.7c-0.7-0.1-1.7,0-2-1c-0.1-0.6,2-2.6,2.6-2.5
		C134.6,197.7,134.4,198.7,134.5,199.3"/>
	<path class="st20" d="M266.8,201.5c0-0.1,0-0.3,0-0.4c0.7,0,1-0.5,1.3-1c0.1,0,0.2,0,0.3,0C268.3,201.1,267.7,201.5,266.8,201.5"/>
	<path class="st21" d="M172.9,228.3c-1.7,0-3.2-0.4-4.7-1c-3-1.3-6.1-2.7-9.1-4c-0.9-0.4-1.1-0.7-0.7-1.7c2.9-6.2,5.7-12.4,8.6-18.6
		c0.3-0.6,0.5-1.2,1.4-0.8c3.3,1.5,6.7,2.9,9.9,4.5c4.9,2.5,6.5,6.5,4.9,11.7c-0.7,2.4-1.8,4.7-3.4,6.6
		C178,227.2,175.8,228.3,172.9,228.3"/>
	<path class="st21" d="M226.6,228.9c-4.4-0.1-6.7-2.6-8.3-5.7c-2-3.7-3.7-7.6-5.5-11.5c-0.3-0.7-0.2-1,0.5-1.3
		c1.6-0.7,3.1-1.3,4.6-2.1c1-0.5,1.3-0.1,1.7,0.7c1.8,3.8,3.8,7.5,5.4,11.3c1.4,3.3,5.1,3,6.9,0.9c1.2-1.5,0.8-2.9,0.1-4.4
		c-1.7-3.6-3.4-7.3-5.2-10.9c-0.5-1-0.6-1.7,0.7-2.1c1.5-0.5,2.9-1.3,4.3-1.9c0.7-0.3,1-0.2,1.4,0.5c1.9,4.1,3.9,8.1,5.7,12.2
		c2,4.6,0.7,8.5-3.5,11.3C232.6,227.7,229.4,228.5,226.6,228.9"/>
	<path class="st1" d="M201.3,153.8c4.6,0.6,9,1.9,12.9,4.6c0.4,0.3,0.9,0.5,1.2,0.9c1.7,2.4,3.5,1.8,5.7,0.5
		c4.3-2.5,8.9-4.6,13.9-5.5c0.4-0.1,0.9-0.1,1.3-0.1c1.7,0.1,2.2,0.9,1.4,2.5c-0.7,1.4-1.8,2.5-2.9,3.5c-3.2,3-6.8,5.6-10.5,8
		c-0.9,0.6-1.3,1.1-0.8,2.2c1,2.1,1.2,4.4,1.6,6.6c0.2,1.4,0.2,2.9,0,4.3c-0.3,1.6-0.7,3.2-1,4.8c-0.2,0.6-0.3,1.2-0.3,1.8
		c-0.3,1.2-1,2.3-1.5,3.4c-0.4,0.7-0.3,1.2,0.5,1.6c3.5,1.5,6.9,3.3,10.6,4.1c0.7,0.2,1.8,0.6,2.2-0.2c0.4-0.8-0.6-1.4-1.2-1.9
		c-2.7-2.3-5.6-4.2-8.7-6c-0.7-0.4-1.4-0.7-1.7-1.4c0-0.5,0-1,0.5-1.3c3.6,1.5,6.7,3.9,9.8,6.3c1.3,1.1,2.6,2.2,3.5,3.6
		c0.5,0.7,1.1,1.5,0.6,2.4c-0.5,0.9-1.5,0.8-2.3,0.8c-2.5-0.1-4.8-0.9-7.1-1.8c-2.6-1-5.2-2.2-7.8-3.3c-0.6-0.3-1-0.4-1.5,0.3
		c-4.3,5.4-10,8.6-16.9,9.5c-0.2,0-0.4,0.1-0.6,0.2c-0.5,0.2-1.1,0.2-1.7,0.1c-5.1,0-10-0.9-14.4-3.7c-0.1-0.3,0.1-0.4,0.4-0.5
		c0.6-0.1,1.2,0.2,1.7,0.5c6,3,12.2,3.3,18.6,1.4c4.7-1.4,8.5-4.1,11.7-8.1c-1.2-0.1-2.1-0.7-2.5-1.7c-0.7-0.5-1.5-0.7-2.2-1.1
		c-0.4-0.3-1.1-0.5-0.7-1.3c1.1-0.4,2.2-0.4,3.3,0.1c0.5,0.3,1,0.6,1.5,0.8c0.5,0.3,1,0.5,1.5,0.7c0.8,0.3,1.1-0.4,1.3-0.9
		c3-6,3.5-12.3,1.5-18.7c-0.1-0.4-0.3-0.8-0.8-0.9c-0.9,0.2-1.6,0.9-2.4,1.4c-0.4,0.2-0.8,0.5-1.1,0.7c-1.5,0.9-2.9,1.9-4.6,2.5
		c-0.3,0.1-0.6,0.1-0.9,0.1c-0.4-0.1-0.7-0.2-1-0.5c-0.1-0.1-0.1-0.3-0.1-0.4c0.3-0.4,0.8-0.6,1.2-0.9c0.2-0.2,0.5-0.3,0.7-0.5
		c1.3-0.9,2.7-1.7,4.1-2.4c0.2-0.2,0.5-0.3,0.7-0.5c0.8-0.6,1.7-1,2.5-1.7c0.2-0.7-0.2-1.2-0.5-1.6c-4-6.3-9.7-10.1-17.1-11.3
		c-7.8-1.2-14.6,1-20.6,6.1c-1.4,1.2-2.4,2.6-3.5,4.1c-0.3,0.4-0.7,0.9-0.2,1.5c0.8,0.7,1.7,1.2,2.5,1.7c0.4,0.2,0.8,0.4,1.1,0.7
		c1.2,0.8,2.3,1.6,3.5,2.3c0.4,0.2,0.8,0.4,1.1,0.7c0.5,0.5,1.5,0.6,1.5,1.6c-0.4,0.5-0.9,0.6-1.5,0.5c-0.5-0.1-0.9-0.4-1.2-0.7
		c-1.3-0.8-2.6-1.7-3.9-2.5c-0.3-0.2-0.5-0.3-0.7-0.5c-1.1-0.7-2.2-1.4-3.2-2.2c-0.5-0.8-0.9-0.1-1.3,0.1c-0.2-0.1-0.4-0.2-0.2-0.5
		c0.5-0.9-0.2-1.2-0.7-1.6c-3.7-2.5-7.4-5-10.8-7.9c-1.1-0.9-2.1-1.9-3.1-2.9c-0.3-0.3-0.6-0.7-0.3-1.2c0.2-0.4,0.7-0.3,1.1-0.2
		c1.3,0.1,2.6,0.6,3.8,1c4.6,1.6,9,3.6,13.4,5.5c0.5,0.2,1,0.8,1.6,0.2c4.5-4.4,9.9-6.7,16.1-7.5C198.7,153.6,200,153.6,201.3,153.8
		"/>
	<path class="st22" d="M203.2,227c0,3.3,0,6.6,0,9.9c0,1.1-0.2,1.6-1.4,1.5c-1.6-0.1-3.3-0.1-4.9,0c-0.8,0-1.1-0.2-1.1-1
		c0-6.9,0-13.9,0-20.8c0-0.8,0.3-1,1.1-1c1.6,0,3.3,0.1,4.9,0c1.1-0.1,1.4,0.3,1.4,1.4C203.2,220.3,203.2,223.6,203.2,227"/>
	<path class="st4" d="M179.7,194.9c-1.6-1.8-1.6-1.8-4-0.7c-4.5,2-8.9,4.1-13.6,5.4c-0.8,0.2-1.9,0.8-2.4,0
		c-0.5-0.9,0.6-1.6,1.2-2.2c4-3.7,8.5-6.8,12.9-10c0.5-0.3,1.1-0.5,1.2-1.2c0.1-0.1,0.3-0.1,0.4-0.1c1.2,1.1,1.2,2.8,2.1,4.1
		c0.4,0.5,0.5,1.3,1.3,1.1c0.8-0.3,1.5-0.9,2.4-1.2c0.4-0.1,0.7-0.3,1.1-0.4c0.7-0.3,1.4-0.4,2.2,0c0.3,1.4-1,1.2-1.6,1.7
		c-0.3,0.1-0.5,0.3-0.8,0.4c-0.7,0.2-1.4,0.6-2,0.9c-0.5,0.2-0.9,0.4-0.4,1c0.2,0.3,0.5,0.6,0.5,1C180.1,194.8,180,195,179.7,194.9"
		/>
	<path class="st23" d="M255.1,138.3c0-0.1,0.1-0.2,0.1-0.3c0.3-0.6,0.2-1.8,1.3-1.4c0.7,0.3-0.1,1.1-0.2,1.7
		c-0.1,0.6-0.4,1.2-0.6,1.8c-0.4,1.1-1,1.6-2.4,1.1c1.6-1.1,0.6-2.2,0.2-3.2c-0.1-0.3-0.2-0.8-0.7-0.6c-0.4,0.1-0.4,0.5-0.3,0.8
		c0,0.4,0,0.9,0.2,1.1c0.4,0.4,0.8,0.7,0.2,1.1c-0.4,0.2-1.4,0.2-1.4-0.3c0-1.4-1.1-2.7-0.2-4.1c0.4-0.6,1.1-0.4,1.1-0.2
		c0.2,1.2,1,0.8,1.7,0.9C254.9,136.7,254.4,137.9,255.1,138.3"/>
	<path class="st24" d="M149.9,139.8c-0.4,0.2-0.9,0.5-1.3,0.6c-2.5,0.5-2.9,0.2-2.9-2.3c0-0.8-0.5-2.1,0.3-2.4
		c0.9-0.4,2.1-0.1,3.2,0c0.7,0.1,0.9,0.7,1.1,1.3C150.8,137.9,150.9,138.9,149.9,139.8"/>
	<path class="st24" d="M222,137.3c0-0.4,0-0.9,0-1.3c0-0.4,0.3-0.5,0.7-0.5c0.4,0,0.6,0.2,0.6,0.6c0,0.8,0,1.5,0,2.3
		c0,0.7,0.3,1,1,1c0.6,0,0.8-0.5,0.8-1c0-0.7,0-1.4,0-2.1c0-0.6,0.2-0.7,0.8-0.8c0.6,0,0.7,0.3,0.7,0.8c0,0.4,0,0.9,0,1.3
		c0,2.3-0.5,2.8-2.3,2.8c-1.8,0-2.2-0.6-2.2-2.8C222,137.6,222,137.4,222,137.3L222,137.3z"/>
	<path class="st25" d="M167.4,136.8c0-0.4,0.1-0.7,0.1-1c0-0.4,0.2-0.6,0.6-0.6c0.4,0,0.6,0.1,0.6,0.6c0,1.3,0,2.7,0,4.1
		c0,0.5-0.4,0.6-0.8,0.6c-0.3,0-0.6-0.2-0.9-0.1c-0.8,0.3-1.7,0.2-2.1-0.7c-0.4-0.8-0.5-1.8,0.1-2.6
		C165.7,136.1,166.6,136.5,167.4,136.8"/>
	<path class="st26" d="M162.2,140.4c-1.4,0-2.2-0.7-2.2-2c0-1.4,0.8-1.9,2-2c1.4-0.1,2.2,0.6,2.2,1.9
		C164.4,139.6,163.6,140.4,162.2,140.4"/>
	<path class="st27" d="M196.4,137.9c-0.7-0.2-0.4-0.7-0.1-1c0.7-0.7,1.6-0.7,2.4-0.4c0.8,0.3,1,0.8,1,1.6c0.1,2.2,0.1,2.2-2.4,2.2
		c-0.6,0-1.3,0-1.5-0.6c-0.3-0.7-0.1-1.3,0.6-1.6c0.3-0.2,0.6-0.1,0.9-0.2C197,137.9,196.7,138.1,196.4,137.9"/>
	<path class="st24" d="M150.8,137.2c0.9-1,2-1.1,3.1-0.4c1.2,0.8,0.3,2.2,0.7,3.3c0,0.1-0.2,0.3-0.3,0.3c-1.2-0.4-2.7,0.7-3.8-0.6
		c-0.3-0.7-0.2-1.3,0.4-1.7c0.3-0.1,0.7,0.1,1.2-0.3c-0.4,0.3-0.7,0.2-1,0.2C150.7,137.8,150.6,137.5,150.8,137.2"/>
	<path class="st28" d="M177.2,138.5c0-1.8,1-2.5,2.7-2c0.5,0.1,0.9,0.4,0.9,1c0,1,0.3,1.9-0.2,2.9c-0.1,0.1-0.4,0.1-0.6,0.1
		c-0.4-0.1-0.3-0.5-0.4-0.8c-0.2-0.7,0.4-2-0.4-2c-1.1,0-0.4,1.3-0.6,2c-0.1,0.5-0.2,0.8-0.8,0.8c-0.5,0-0.6-0.4-0.6-0.8
		C177.2,139.3,177.2,138.9,177.2,138.5"/>
	<path class="st29" d="M213.7,139.6c-0.5,0.2-0.5,1.2-1.3,0.9c-0.8-0.3-0.4-1-0.5-1.5c-0.1-0.5,0.3-1.3-0.5-1.3
		c-0.9-0.1-0.6,0.8-0.7,1.3c0,0.3,0,0.6,0,1c0,0.4-0.2,0.6-0.6,0.6c-0.4,0-0.6-0.2-0.6-0.6c0-0.9-0.2-1.9,0-2.7
		c0.3-1.1,1.5-0.3,2.2-0.6c0.6-0.3,1.3,0.3,1.5,1.1c0.2,0.5-0.2,1.1,0.4,1.5C213.8,139.2,213.8,139.4,213.7,139.6"/>
	<path class="st30" d="M208.9,138.2c0,1.8-0.9,2.2-2.1,2.2c-1.2,0-2.3-1-2.3-2c0-1,1.2-2,2.4-2C208.3,136.4,209.1,137.1,208.9,138.2
		"/>
	<path class="st31" d="M213.7,139.6c0-0.2,0-0.3,0-0.5c0-0.5,0.3-0.7,0.7-1c0.1-0.1,0.3,0,0.4-0.2c-0.1,0.1-0.3,0.1-0.4,0.1
		c-0.3-0.1-0.8-0.2-0.5-0.6c0.4-0.8,1.2-1,2.1-0.9c0.7,0.1,1.5,0.3,1.4,1.4c0,0.3,0.1,0.7,0,1c-0.3,0.6,0.7,1.7-0.1,1.5
		C216.1,140.1,214.5,141.3,213.7,139.6"/>
	<path class="st32" d="M238.6,138.9c0.1,0.7,0.6,0.8,1,0.5c0.5-0.3,0.9-0.3,1.5-0.1c-0.6,1.4-1.7,1.3-2.9,0.9
		c-1-0.3-1.3-1.1-1.2-2.1c0.2-1.1,1-1.7,2-1.8c1.1,0,2.1,0.3,2.1,1.7c0.1,0.1,0.1,0.3,0,0.4l0,0
		C240.4,138.9,239.4,138.3,238.6,138.9"/>
	<path class="st24" d="M191.7,138.3c-0.5-1.4,0.5-1.8,1.9-1.8c1.2,0,1.8,0.3,1.7,1.6c0,0.3,0.1,0.7,0,1c-0.1,0.5,0.3,1.4-0.6,1.4
		c-1,0.1-0.5-0.8-0.6-1.3c-0.1-0.3,0-0.5,0-0.8c0-0.3-0.1-0.7-0.5-0.7c-0.4,0-0.5,0.4-0.5,0.7c0,0.4,0,0.8,0,1.1
		c0,0.5,0.1,1.1-0.6,1c-0.8,0-0.5-0.6-0.6-1.1C191.7,139.1,191.7,138.8,191.7,138.3"/>
	<path class="st33" d="M198.1,127.9c1.5,0.1,2.5-0.4,2.6-2.4c0.6,1.5,1,2.8,3.1,2c-1.3,1.1-2.7,1.6-1.4,3.2
		c-1.3-0.9-2.3-0.7-3.6,0.4C199.5,129.6,199.8,128.5,198.1,127.9"/>
	<path class="st28" d="M227.1,138.1c-0.7-2.1,1.3-1.6,2.3-1.7c1.2-0.1,1.6,0.8,1.6,1.9c0,0.4,0,0.8,0,1.1c0,0.5,0,0.9-0.7,0.9
		c-0.7,0-0.5-0.5-0.6-0.9c0-0.2,0-0.4,0-0.7c-0.1-0.5,0.1-1.2-0.6-1.3c-0.9-0.1-0.6,0.8-0.7,1.3c-0.1,0.6,0.4,1.5-0.6,1.5
		c-1.1,0-0.4-1-0.6-1.5C227,138.7,227.1,138.5,227.1,138.1"/>
	<path class="st25" d="M187.8,139.8c-1.3,1-2.5,0.8-3.6-0.3c-0.9-0.8-0.7-1.6,0.1-2.3c1.2-1,2.4-1.1,3.6,0c0.3,0.3,0.4,0.7,0.2,1.2
		c-0.4,0.7-1.1,0.3-1.7,0.6C187,139,188.1,138.4,187.8,139.8"/>
	<path class="st32" d="M247.5,138.1c0.6,0.2,1,0.7,0.8,1.4c-0.2,0.6-0.7,0.8-1.3,0.9c-1,0.2-1.9,0.1-2.5-1c0.8-0.7,1.5,0.5,2.3,0
		c-0.4-0.9-1.7-0.3-2.1-1.2c-0.2-0.3-0.2-0.7,0-1c1.3-1.2,2.4-1.1,3.3,0.3c-0.5,0.3-1,0.4-1.6,0.3
		C246.9,137.9,247.2,137.9,247.5,138.1"/>
	<path class="st32" d="M235.1,138.3c0.5-0.6,0.2-2.2,1.5-1.6c0.6,0.3,0,1.5-0.3,2.2c-0.2,0.6-0.2,1.6-1.3,1.5
		c-1.1,0-0.9-0.9-1.2-1.4c-0.2-0.4-0.3-0.8-0.4-1.2c-0.1-0.4-0.7-0.9,0.1-1.2c0.6-0.2,1,0.1,1.2,0.8
		C234.7,137.7,234.6,138.2,235.1,138.3"/>
	<path class="st34" d="M157.7,137.2c-0.7,0-1.1,0.3-1,1.1c0,0.5,0,1.1,0,1.6c0,0.3-0.2,0.5-0.6,0.4c-0.2,0-0.4-0.1-0.5-0.2
		c-0.2-0.2-0.2-4.2,0-4.5c0.4-0.6,1.1-0.7,1.6-0.4c0.7,0.3,0.1,0.6-0.2,0.9c-0.2,0.2,0,0.3,0.1,0.3c0.7,0.3,0.8-0.3,1-0.7
		C158.5,136.5,158.4,136.9,157.7,137.2"/>
	<path class="st35" d="M219.5,137.7c0,0.7,0,1.3,0,2c0,0.6-0.3,0.7-0.8,0.7c-0.5,0-0.7-0.2-0.7-0.7c0-1.3,0-2.6,0-3.9
		c0-0.5,0.2-0.6,0.7-0.6c0.5,0,0.8,0.1,0.8,0.7C219.5,136.5,219.5,137.1,219.5,137.7"/>
	<path class="st36" d="M184,139.5c-0.3,0.9-1.6,1.3-1.7,0.6c-0.2-1.2-1-2.4-0.4-3.8c0.6-1.2,0.9-1.1,1.4,0c0.2,0.4,0.8,0.4,0.7,0.9
		C183.7,138,183.3,138.7,184,139.5"/>
	<path class="st37" d="M202.5,136.8c0.1,0.5-0.3,0.5-0.4,0.7c-0.4,0.6-0.4,1.3,0,1.8c0.3,0.3,0.8,0.6,0.3,1
		c-0.4,0.3-1.3,0.3-1.5-0.2c-0.3-1.1-0.5-2.4-0.5-3.6c0-0.2-0.1-1.2,0.8-1.1C202.2,135.6,201.6,136.9,202.5,136.8"/>
	<path class="st38" d="M244.8,137.2c0,0.3,0,0.7,0,1c-0.3-0.3-0.5-0.8-1.1-0.5c-0.5,0.2-0.6,0.6-0.6,1c0,0.3,0,0.5,0,0.8
		c0,0.4,0,0.9-0.7,0.9c-0.6,0-0.8-0.3-0.8-0.8c0-0.4,0.1-0.9-0.4-1.1c0-0.1,0-0.3,0-0.4c0.4-1.1,0.9-1.6,2.2-1.6
		C244.3,136.5,244.4,137,244.8,137.2"/>
	<path class="st39" d="M157.7,137.2c0.3-0.4,0.4-0.9,0.4-1.4c0.3-0.8,1-0.6,1.7-0.6c0.4,0,0.5,0.3,0.3,0.6c-0.8,1.1-0.8,2.4-0.8,3.7
		c0,0.9-0.4,1.1-1.2,0.6C157.6,139.2,158.3,138.1,157.7,137.2L157.7,137.2z"/>
	<path class="st40" d="M188.6,136.6c0.7-0.1,1.3,0.3,2-0.1c0.3-0.2,0.6,0.1,0.7,0.4c0.1,0.4,0,0.7-0.4,0.7c-1,0.2-1.1,0.9-1,1.7
		c0.2,1.1-0.5,1.2-1.4,1.2C188,139.2,188,137.9,188.6,136.6"/>
	<path class="st3" d="M171.2,137.9c0-0.7,0-1.3,0-1.9c0-0.5,0.1-0.7,0.6-0.7c0.5,0,0.7,0.2,0.7,0.7c0,1.2,0,2.5,0,3.7
		c0,0.5-0.1,0.8-0.7,0.8c-0.6,0-0.6-0.4-0.6-0.8V137.9z"/>
	<path class="st28" d="M175.2,138c0-0.6,0-1.2,0-1.8c0-0.4,0.1-0.7,0.6-0.7c0.5,0,0.6,0.3,0.6,0.7c0,1.1,0,2.3,0,3.4
		c0,0.4,0.1,0.8-0.5,0.8c-0.6,0-0.8-0.3-0.8-0.8C175.2,139.1,175.2,138.6,175.2,138"/>
	<path class="st1" d="M250.1,138.5c-0.4,0.6,0.5,1.8-0.7,1.8c-1.2,0-0.4-1.2-0.6-1.8c0-0.1,0-0.1,0-0.2c0.2-0.6-0.6-1.8,0.6-1.7
		C250.6,136.7,249.7,137.9,250.1,138.5"/>
	<path class="st1" d="M232.7,138.6c0,0.2,0,0.4,0,0.7c-0.1,0.5,0.3,1.2-0.6,1.2c-0.8,0-0.6-0.6-0.6-1.1c0-0.5,0-1.1,0-1.6
		c0-0.5-0.2-1,0.6-1.1c0.8,0,0.6,0.6,0.6,1C232.7,137.9,232.7,138.3,232.7,138.6"/>
	<path class="st41" d="M204.3,138.6c-0.3,0.5,0.7,1.8-0.7,1.8c-1.1,0-0.5-1.2-0.6-1.9c-0.1-0.2,0-0.4,0-0.6c0.1-0.5-0.2-1.3,0.8-1.3
		c0.9,0,0.5,0.8,0.6,1.3C204.4,138,204.3,138.3,204.3,138.6"/>
	<path class="st40" d="M170.6,138.6c0,0.3,0,0.5,0,0.8c0,0.5,0.1,1.1-0.7,1c-0.6,0-0.6-0.5-0.6-0.9c0-0.7,0-1.3,0-2
		c0-0.4,0-0.9,0.6-0.9c0.7,0,0.6,0.4,0.6,0.9C170.6,137.8,170.6,138.2,170.6,138.6"/>
	<path class="st42" d="M179.7,194.9c0.1-0.1,0.2-0.2,0.3-0.3c1,0.1,1.3,1.1,2.1,1.6c1.3,0.9,2.4,2,3.7,2.8c0.4,0.2,0.9,0.5,0.8,1.1
		c-0.1,0.1-0.2,0.2-0.3,0.3C183.7,199.1,181.5,197.3,179.7,194.9"/>
	<path class="st43" d="M176.4,168.5c0.1,0.1,0.2,0.2,0.3,0.4c0.2,0.2,0.2,0.4,0.1,0.6c-0.8,2.2-1.2,4.5-2.1,6.6
		c-0.6,0.1-0.4-0.4-0.5-0.7C174.5,173,175.1,170.6,176.4,168.5"/>
	<path class="st12" d="M188.6,136.6c-0.2,1.3-0.2,2.6,0,3.9c-0.2-0.2-0.5-0.4-0.7-0.7c0.1-1.2-0.7-0.6-1.1-0.5
		c-0.7,0.3-1.1,0.3-1.4-0.4c0.8-0.6,1.8,0.1,2.6-0.4c0.2-0.4,0.1-0.9,0-1.3L188.6,136.6z"/>
	<path class="st44" d="M175.4,186.1c-0.1,0-0.3,0-0.4,0c-0.6-1.1-0.7-2.4-0.8-3.6c0.1-0.3,0.3-0.5,0.6-0.3
		C175.3,183.5,175.9,184.7,175.4,186.1"/>
	<path class="st45" d="M174.1,181.6c-0.4-1.6-0.4-3.2,0-4.9c0.5,0.4,0.4,1.1,0.7,1.6c0.1,0.5,0.1,1,0,1.6
		C174.5,180.5,174.6,181.1,174.1,181.6"/>
	<path class="st46" d="M184,139.5c-1.1-0.7-1.1-1.4,0-2.3c0.1,0,0.2,0,0.4,0c-0.3,0.8-0.4,1.5-0.1,2.3h-0.1L184,139.5z"/>
	<path class="st47" d="M151.2,138.1c-0.7,0.4-0.8,1-0.7,1.7c-0.2,0-0.4,0-0.7,0c0.5-0.9,0.4-1.9,0.4-2.9c0.2,0.1,0.4,0.2,0.5,0.3
		c0,0.3-0.1,0.6,0.4,0.7c0.1,0.1,0.1,0.1,0.1,0.2C151.3,138.1,151.3,138.1,151.2,138.1"/>
	<path class="st48" d="M225.2,181.3c0-1.4,0-2.9,0-4.3C225.7,178.4,225.7,179.8,225.2,181.3"/>
	<path class="st49" d="M249.4,136.2c-0.4,0-0.6-0.1-0.6-0.5c0-0.4,0.3-0.5,0.6-0.5c0.3,0,0.6,0.1,0.6,0.5
		C250,136.2,249.7,136.2,249.4,136.2"/>
	<path class="st49" d="M232.7,135.7c0,0.6-0.4,0.5-0.7,0.5c-0.4,0-0.6-0.1-0.6-0.6c0-0.5,0.4-0.4,0.7-0.4
		C232.6,135.2,232.8,135.4,232.7,135.7"/>
	<path class="st50" d="M214.4,137.9c0.1,0,0.1,0,0.2,0c0.4-0.2,0.7-0.9,1.4-0.6c0.1,0,0.2,0.3,0.1,0.4c-0.3,0.6-0.9,0.2-1.3,0.4
		c-0.1,0-0.2,0-0.3,0V137.9z"/>
	<path class="st51" d="M170.6,135.8c0,0.5-0.4,0.4-0.7,0.4c-0.3,0-0.5-0.1-0.5-0.5c0-0.4,0.3-0.5,0.6-0.5
		C170.4,135.2,170.6,135.3,170.6,135.8"/>
	<path class="st52" d="M201.3,153.8h-4C198.7,153.3,200,153.3,201.3,153.8"/>
	<path class="st53" d="M196.4,137.9c0.1,0,0.1,0,0.2,0c0.7,0.1,0.9-1,1.7-0.6c0.1,0.1,0.2,0.4,0.1,0.4c-0.6,0.6-1.3,0.3-2,0.4V137.9
		z"/>
	<path class="st51" d="M204.3,135.7c0,0.5-0.2,0.5-0.6,0.5c-0.4,0-0.6-0.1-0.6-0.6c0-0.3,0.2-0.4,0.5-0.5
		C204,135.2,204.3,135.2,204.3,135.7"/>
	<path class="st8" d="M247.5,138.1c-0.5,0-1-0.1-1.5-0.6h2.1C247.9,137.7,247.7,137.9,247.5,138.1"/>
	<path class="st34" d="M157.7,137.2c0.8,0.9,0.2,2,0.4,3C157.6,139.2,158.1,138.2,157.7,137.2"/>
	<path class="st3" d="M174.4,178.3c-0.5-0.5-0.1-1.1-0.3-1.6c0-0.4,0.1-0.9,0.1-1.3c0.1,0.2,0.2,0.5,0.3,0.7
		C175,176.9,175.1,177.6,174.4,178.3"/>
	<path class="st54" d="M174.1,181.6c0.2-0.5-0.2-1.1,0.3-1.6c0.7,0.7,0.6,1.4,0.1,2.2c-0.1,0.1-0.2,0.3-0.3,0.4
		C174.2,182.2,174.1,181.9,174.1,181.6"/>
	<path class="st38" d="M238.6,138.9c0.8-0.8,1.8-0.2,2.6-0.4C240.4,139.1,239.5,138.6,238.6,138.9"/>
	<path class="st55" d="M224.5,186.1c-0.1,0.4-0.2,0.9-0.3,1.3c-0.1,0.3-0.3,0.5-0.6,0.4c0.1-0.6,0.2-1.2,0.7-1.7
		C224.3,186.1,224.4,186.1,224.5,186.1"/>
	<path class="st56" d="M200.6,204.2c0.6,0,1.1,0,1.7-0.1C201.8,204.6,201.2,204.5,200.6,204.2"/>
	<path class="st57" d="M198.6,270c-4.4,0-7.8-3.5-7.8-7.9c0.1-4.4,3.6-7.7,8-7.7c4.3,0.1,7.9,3.6,7.9,7.8
		C206.8,266.4,203,270,198.6,270"/>
	<path class="st2" d="M171.1,222.4c-1.5-0.1-2.6-0.8-3.8-1.3c-0.6-0.2-0.5-0.6-0.3-1c1.5-3.3,3.1-6.6,4.6-9.9c0.2-0.5,0.5-0.7,1-0.3
		c0.8,0.5,1.7,0.9,2.5,1.5c1.2,0.9,1.7,2.1,1.4,3.7c-0.4,2.3-1.6,4.3-2.9,6.1C173.1,222.1,172.1,222.4,171.1,222.4"/>
	<path class="st58" d="M218.3,170.5c-0.2,0.1-0.4,0.2-0.6,0.3c-1.4-0.3-1.3-1.7-1.9-2.6c-0.9-1.3-1.2-1.4-2.4-0.5
		c-0.8,0.6-0.6,1.2-0.4,2c0.3,1.2,1.2,2.4,0.5,3.7l-0.6,0.4c-0.7,0.1-0.7-0.5-0.9-0.9c-0.3-0.8-0.5-1.6-0.8-2.3
		c-0.2-0.5-0.2-1.3-1.1-1.1c-0.8,0.2-1.5,0.6-1.4,1.7c0.1,1,0.8,2.1-0.2,3.1c-0.6,0.2-1,0-1.4-0.5c-0.7-2.7-0.7-2.7-3.5-2.3
		c-3,0.5-6,0.5-9-0.3c-1.3-0.3-2-0.1-2.1,1.3c0,0.5-0.2,1-0.5,1.4c-0.4,0.3-0.8,0.3-1.2,0.2c-0.7-0.6-0.3-1.4-0.2-2.1
		c0.2-1.1,0.1-1.9-1.1-2.2c-1.3-0.3-1.1,0.9-1.4,1.5c-0.3,0.6-0.3,1.4-1.1,1.7c-0.4-0.1-0.8-0.3-1-0.7c-0.3-0.9,0.1-1.7,0.5-2.5
		c0.5-1.1-0.2-1.6-1-2.1c-0.9-0.5-1.2,0.1-1.7,0.7c-0.4,0.6-0.4,1.5-1.4,1.6c-0.4-0.2-0.7-0.3-0.9-0.7c0-0.9,0.5-1.5,0.9-2.2
		c0.3-0.6,0.3-1-0.2-1.4c-0.6-0.3-1.1-0.5-1.6,0.1c-0.6,0.6-0.8,1.6-1.7,1.8c-1.2-0.3-0.8-0.9-0.4-1.6c3.9-5.6,9.1-9.2,15.8-10.6
		c10.4-2.2,21.6,2.7,26.6,11.8c0.3,0.5,1.1,1.1,0.1,1.8c-0.8,0.4-1-0.3-1.3-0.8c-0.4-0.7-0.8-1.4-1.4-2c-0.3-0.3-0.7-0.6-1.1-0.3
		c-0.6,0.3-0.1,0.8,0.1,1.1c0.4,0.7,0.7,1.3,1,2C218.5,169.3,218.8,169.9,218.3,170.5"/>
	<path class="st58" d="M186.6,200.2c-2.4-1.6-4.6-3.4-6.6-5.5c-0.2-0.3-0.4-0.6-0.6-0.9c-0.8-0.9-0.5-1.3,0.6-1.4
		c0.3,0.1,0.4,0.3,0.6,0.5c0.3,0.3,0.7,0.5,1.2,0.2c0.5-0.3,0.4-0.7,0.2-1.1c-0.1-0.2-0.1-0.4,0-0.6l0.6-0.4
		c0.3-0.2,0.7-0.1,0.9,0.1c1.2,1.3,2.3,0.1,3.3-0.2c0.6-0.2,0-0.9,0.4-1.3c0.4-0.2,0.7-0.2,1.1-0.1c0.8,0.5,1.6,0.1,2.4-0.1
		c0.9-0.1,1.9-0.3,2.8,0.2c0.8,2.6,1.8,5.2,3.3,7.5c0.3,0.4,0.4,1,1,0.9c0.7-0.1,0.6-0.8,0.6-1.3c0-1.5,0-3,0-4.5
		c0-0.6-0.1-1.3,0.4-1.9c0.3-0.2,0.7-0.2,1,0c0.8,1.1,0.4,2.3,0.4,3.5c0.1,1,0,2.1,0,3.1c0,0.5,0,1.1,0.7,1.4
		c0.7,0.3,1.1-0.2,1.5-0.7c1.5-2.1,2.5-4.4,3.1-6.9c0.1-0.3,0.1-0.7,0.3-0.9c0.9-0.5,1.9-0.3,2.8-0.2c0.7,0.2,1.4,0.5,2.2,0.1
		c0.4-0.1,0.8-0.1,1.1,0.1c0.5,1.3,1.7,2.1,3.2,2.1c0.4,0,0.7-0.3,1.1,0c0.3,0.2,0.7,0.3,0.6,0.7c-0.2,1,0.4,1,1,0.7
		c0.5-0.3,0.9-0.2,1.2,0.1c0.4,0.5-0.1,0.8-0.4,1.1c-4.1,5-9.3,7.9-15.6,8.9C197.3,204,191.8,202.9,186.6,200.2"/>
	<path class="st59" d="M212,189.8c-0.4,0-0.8,0-1.2,0c-0.5,0.2-1.1,0.1-1.6,0l-3.3,0c-1.9,0.3-3.8,1-5.9,0.7h-1.1
		c-1.8,0.8-3.4-0.5-5.1-0.7c-1.1,0-2.2,0-3.4,0c-0.6,0.1-1.3,0.3-1.9,0c-0.4,0-0.8,0-1.2,0c-0.9,0.5-1.8,0.5-2.7,0
		c-0.8,0-1.5-0.2-2.2,0.1c-0.5,0-1,0.1-1.5,0.2c-0.8,0.1-1.6,0.1-2.4-0.1c-1.5-1-0.4-2,0.1-2.9c0.3-0.5,0.6-1.1,0.9-1.7
		c0.2-0.5,0.5-0.9,0.7-1.4c0.8-1.5,1.7-3,2.5-4.5c0.2-0.3,0.3-0.7,0.5-1c0.8-1.1,1.3-2.4,2.1-3.5c0.2-0.1,0.5-0.1,0.7,0
		c0.1,0.1,0.2,0.3,0.2,0.4c-1.2,2.9-2.6,5.8-4,8.6c-0.3,0.7-0.8,1.3-0.8,2.1c0,0.6-0.4,1-0.4,1.6c1.6,0.7,3.3,0.3,4.9,0.1
		c0.4-0.1,0.8-0.1,1.2-0.1c2.1-0.3,4.2-0.7,6.3-1.1c0.4-0.1,0.8-0.3,1.2-0.2c1.4,0.7,2.9,1.2,3.7,2.7c1.1,0.4,2.2,0.8,2.8-0.6
		c0.4-1.2,1.2-1.9,2.4-2c0.7,0,1.4,0,2.1,0c0.5,0,1,0,1.5,0.1c0.5,0.1,0.9,0.2,1.4,0.3c0.2,0,0.5,0.1,0.7,0.2
		c0.5,0.5,1.2,0.5,1.8,0.6c0.1,0,0.3,0.1,0.4,0.1c0.5,0.2,1.1,0.1,1.6,0.3c1.4,0.3,2.8,0.1,4.2,0.1c0.2,0,0.3,0,0.5,0
		c0.2-0.1,0.5,0.2,0.5-0.2c-0.2-0.3-0.6-0.5-0.8-0.8c-0.9-2.2-2.2-4.3-3-6.6c-0.2-1.2-0.9-2.1-1.2-3.2c-0.2-0.7-0.9-1.2-0.8-2.1
		c0.3,0,0.6-0.1,0.9-0.1c0.1,0,0.1,0.1,0.2,0.1c0.3,0.3,0.5,0.6,0.8,1c0.4,0.8,0.8,1.7,1.3,2.5c0.2,0.4,0.5,0.7,0.7,1.1
		c1,1.8,1.8,3.7,3,5.5c0.5,1,1.1,2,1.6,3c0.4,0.8,0.5,1.6-0.6,1.9c-0.6,0.1-1.2,0.1-1.8,0.1c-0.6,0-1.2,0-1.7-0.3
		c-1.2,0-2.4,0-3.6-0.1C212.7,190.1,212.4,190.1,212,189.8"/>
	<path class="st2" d="M235.1,155.7c0.4,0,0.8,0,1.1,0.3c0.3,0.4,0,0.8-0.3,1.2c-0.9,1.4-2.2,2.5-3.5,3.6c-2.8,2.3-5.8,4.3-8.8,6.4
		c-0.8,0.6-1.2,0.6-1.7-0.4c-0.6-1.2-1.5-2.3-2.3-3.3c-0.4-0.5-0.5-0.8,0.1-1.1c4.5-2.5,9-5,14-6.4
		C234.2,155.8,234.7,155.7,235.1,155.7"/>
	<path class="st2" d="M223.6,187.8c0.2-0.1,0.4-0.3,0.6-0.4c3.3,2,6.7,4,9.7,6.5c0.7,0.6,1.3,1.2,1.9,1.8c0.4,0.4,0.9,0.9,0.6,1.5
		c-0.3,0.6-1,0.5-1.6,0.4c-1.1-0.2-2.2-0.4-3.3-0.8c-3.2-1.1-6.2-2.5-9.3-3.9c-0.9-0.4-0.9-0.8-0.4-1.5
		C222.5,190.3,223,189,223.6,187.8"/>
	<path class="st60" d="M162.9,155.4c6.2,1.8,11.5,4.7,17.1,7.3c-0.3,0.4-0.6,0.8-0.8,1.1c-0.8,0.9-1.1,2.6-2.1,2.6c-1,0-2-1.1-3-1.8
		c-3.3-2.2-6.6-4.4-9.6-7C163.9,157.1,163.3,156.7,162.9,155.4"/>
	<path class="st58" d="M180.4,184.2c-0.1,0.5-0.3,1-0.8,1.4c-1.4-1-1-2.5-1-3.8c-0.1-1.1-0.4-1.8-1.6-1.7c-0.7,0-1,0.3-0.9,1
		c0.2,1.7,0.5,3.4,1,5.1c0.3,1.1,1.2,0.7,1.8,1c-0.2,0.9-1.4,1.5-0.6,2.6c0.5,0.5,1.2,1,0.7,1.9c-0.7,0.5-1,0.1-1.3-0.5
		c-1-1.6-1.6-3.3-2.2-5c-0.3-1.3-0.6-2.7-0.9-4c0-0.7-0.1-1.5-0.1-2.2v-1.7c0-0.7,0.1-1.5,0.1-2.2c0.5-2.5,1.2-4.9,2.2-7.3
		c0.3-0.7,0.7-1,1.4-0.3c0.5,0.7,0,1.2-0.2,1.8c-0.8,2.1-1.4,4.2-1.7,6.4c-0.1,0.7-0.2,1.4,0.8,1.4c0.8,0,1.5,0,1.7-1.1
		c0.3-1.7,0.6-3.4,1.2-5c0.3-0.7,0.4-1.6,1.5-1.3c0.2,0.2,0.4,0.3,0.6,0.5c0.1,1.6-0.7,3-1,4.5c-0.4,2.2-0.5,2.2,1.7,2.6
		c0.3,0,0.5,0.1,0.7,0.4c-0.2,0.4-0.3,0.7-0.5,1.1c-2.2,0.8-2.2,0.8-2.3,3.4C180.6,183.4,180.5,183.8,180.4,184.2"/>
	<path class="st58" d="M220.2,189.8c1-0.5,0.5-1.1,0.1-1.7c-0.5-1-1-1.9-1.5-2.9c-0.4-1.1,0-2.1,0.1-3.2c0.2-1.6,0.1-1.8-1.5-1.9
		c-0.5,0-1.1-0.1-1.6-0.4c-0.3-0.3-0.6-0.6-0.6-1.1c0.5-0.5,1.2-0.4,1.8-0.4c1.7-0.1,1.8-0.3,1.5-2c-0.2-1.3-0.8-2.5-0.7-3.8
		c0.2-0.4,0.6-0.6,1-0.7c0.8,0,0.8,0.7,1,1.3c0.5,1.2,0.6,2.4,0.9,3.6c0.1,0.6,0.1,1.5,1,1.4c0.8-0.1,0.4-1,0.4-1.5
		c-0.2-1.5-0.5-3-1-4.5c-0.2-0.6-0.5-1.2,0-1.8c0.9-0.7,1.1,0,1.3,0.6c1.9,5.3,1.9,10.6,0.2,15.9c-0.5,1.6-1.2,3-2,4.4
		c-0.5,0.9-1,0.9-1.6,0.2C219.1,190.6,219.6,190.2,220.2,189.8"/>
	<path class="st61" d="M181.4,170.7c-0.7,0-0.8,0.6-1,1.1c-0.7,1.8-1.1,3.7-1.4,5.7c-0.2,2-1.7,0.9-2.7,1c-1.1,0.2-0.8-0.7-0.7-1.3
		c0.2-3.1,1.3-5.9,2.4-8.7C179.1,169.3,180.3,170,181.4,170.7"/>
	<path class="st61" d="M183.4,178.6c-3.5-0.1-3.5-0.1-2.7-3.6c0.3-1.3,0.7-2.6,1.3-3.9c1.3,0.8,2.7,1.7,4,2.5c0,0.5-0.3,1-0.6,1.4
		C184.8,176.4,184.2,177.5,183.4,178.6"/>
	<path class="st61" d="M218,172.4c0.4,0.4,0.5,1.1,0.7,1.6c1.2,4.5,1.2,4.5-3.3,4.6c-0.6-0.8-1-1.6-1.3-2.5c-0.1-0.4-0.3-0.8-0.6-1
		l0-0.1C214.9,174.2,216.3,173.1,218,172.4"/>
	<path class="st61" d="M213.4,173.4c0-1.5-0.6-2.8-1.1-4.2c-0.8-2,1.3-1.7,2.1-2.4c0.9-0.8,1.1,0.3,1.4,0.7c0.7,1.1,1.3,2.2,1.9,3.4
		C216.2,171.7,214.8,172.5,213.4,173.4"/>
	<path class="st61" d="M208.6,174.1c-0.1-1-0.2-2.1-0.5-3c-0.3-1,0.1-1.3,0.9-1.7c1.8-0.8,1.8-0.8,2.5,1.1c0.4,1.1,0.4,2.3,1.2,3.3
		c-0.3,0.4-0.8,0.5-1.3,0.6C210.4,174.9,209.4,175.2,208.6,174.1"/>
	<path class="st62" d="M221.3,170.2c0.4,2.3,1.3,4.4,1.5,6.8c0,0.6,0.6,1.5-0.6,1.7c-1,0.2-1.5-0.1-1.7-1.3
		c-0.3-1.9-0.5-3.9-1.5-5.6C219.7,171.2,220.5,170.7,221.3,170.2"/>
	<path class="st63" d="M208.6,174.1c0.9,0.5,1.9,0.2,2.9,0.3c0,0.1,0,0.2,0,0.3c-0.1,0.1-0.1,0.1-0.2,0.2c-1.3,0.5-2.7,0.3-4-0.1
		c-1.4-0.4-2.8-0.9-4.3-1.1c-1.9-0.2-2.8,0.4-2.8,2.4c-0.1,3.5,0,6.9,0,10.4c-0.3,0.5-0.6,0.5-0.9,0.1c-0.4-0.8-0.3-1.6-0.3-2.4
		c-0.1-3.1,0.2-6.3-0.2-9.4c-0.6-1.3-1.7-1.7-2.8-1.3c-2.7,0.9-5.6,1-8.3,1.9c-0.4,0-0.6-0.3-0.7-0.6c0-0.2,0-0.3,0.1-0.5
		c0.6-0.1,1.1-0.3,1.6-0.4c0.6-0.5,1.3-0.7,2-0.3c0.4,0,0.9-0.1,1.3-0.1c2-1.5,4.3-1.6,6.7-1.1c0.7,0.2,1.3,0.3,2,0.1
		c2.4-0.7,4.6-0.2,6.7,1.1C207.6,174.1,208.1,174.1,208.6,174.1"/>
	<path class="st64" d="M190.5,173.8c-0.7,0.1-1.3,0.4-2,0.3l-1.6-1.2c0.3-1,0.6-1.9,1-2.9c0.2-0.5,0.3-1.4,1.1-0.9
		c0.8,0.5,2.3,0.1,2.1,1.7C191,171.8,190.7,172.8,190.5,173.8"/>
	<path class="st61" d="M182.3,169.9c0.3-0.4,0.6-0.9,0.9-1.3c1.1-2.1,2-2.2,3.7-0.6c0.4,0.4,0.3,0.7,0.1,1.1c-0.4,1-0.7,2-1.1,3
		C184.6,171.6,183.5,170.7,182.3,169.9"/>
	<path class="st65" d="M178.7,167.5c0.4-0.6,0.9-1.2,1.2-1.9c0.6-1.2,1.3-1.1,2.3-0.4c0.7,0.5,1.1,0.9,0.4,1.7
		c-0.5,0.7-0.9,1.4-1.3,2.2C180.3,168.9,179.5,168.2,178.7,167.5"/>
	<path class="st65" d="M218.3,170.5c0-1.5-1-2.6-1.7-3.8c-0.2-0.5-0.7-0.9,0.1-1.3c0.6-0.4,1.2-0.7,1.7,0.1c0.5,0.8,1,1.5,1.5,2.3
		c0.3,0.4,0.3,1.1,1,1.1C220,169.4,219.2,169.9,218.3,170.5"/>
	<path class="st66" d="M212,189.8c0.4,0,0.7,0,1.1,0c0.9,0.9,2.2,1.2,3.2,1.9c-1.6,1.1-2.9-0.1-4.2-0.6
		C211.5,190.8,211.9,190.3,212,189.8"/>
	<path class="st67" d="M220.2,189.8c-0.3,0.5-0.6,1.1-0.9,1.6c-0.5-0.1-0.9-0.3-1.3-0.7c-0.3-0.4,0.1-0.7,0.3-0.9H220.2z"/>
	<path class="st68" d="M186.9,174.4c0,0.1,0,0.2,0,0.2c-0.2,0.4-0.5,0.6-1,0.4c-0.2,0-0.4,0-0.6,0c0-0.6,0-1.1,0.6-1.4L186.9,174.4z
		"/>
	<path class="st69" d="M212.4,175.1c0.4,0.6,1,1.1,0.9,1.9c-0.1,0.1-0.3,0.2-0.4,0.1c-0.1,0-0.3-0.1-0.4-0.2
		c-0.3-0.7-0.9-1.2-1.2-1.8c0-0.2,0-0.3,0.1-0.4l0,0C211.8,174.9,212.1,175,212.4,175.1"/>
	<path class="st70" d="M218.3,189.8c-0.1,0.3-0.2,0.6-0.3,0.9c-0.6-0.1-1.1-0.2-1.3-0.8C217.2,189.7,217.8,189.7,218.3,189.8"/>
	<path class="st60" d="M161.3,198.8c0.1-0.9,0.8-1.3,1.4-1.8c3.8-3.1,7.9-5.8,11.9-8.5c0.7-0.4,1-0.5,1.3,0.3
		c0.5,1.2,1.7,2.5,1.4,3.4c-0.2,0.8-2,1.2-3.2,1.7c-3.4,1.6-6.8,3.2-10.3,4.4C163,198.6,162.2,199,161.3,198.8"/>
	<path class="st71" d="M184.6,189.8c0.9,0,1.8,0,2.7,0c0.4,0.7,0.5,1.3-0.5,1.5c-0.4,0.1-0.8,0.3-1.2,0.5c-1,0.6-1.8,0.7-2.3-0.5
		c-0.1-0.2-0.4-0.2-0.7-0.3C183.2,190.5,184.1,190.6,184.6,189.8"/>
	<path class="st72" d="M182,191.4c1,1.6,0.9,2.1-0.5,2.3c-1,0.2-1.2-0.6-1.5-1.3C180.6,191.8,181.2,191.5,182,191.4"/>
	<path class="st73" d="M179,191.6c0.1-0.7-0.6-1.2-0.7-1.9c0.9,0,1.8,0,2.7,0.1c0.2,0.1,0.5,0.2,0.3,0.6
		C180.6,190.8,179.8,191.2,179,191.6"/>
	<path class="st74" d="M181.3,190.4l-0.3-0.6c0.5-0.1,0.9-0.2,1.3,0.2L181.3,190.4z"/>
	<path class="st75" d="M146.8,137.8c0.4-0.5-0.5-1.5,0.7-1.6c1,0,1.3,0.7,1.3,1.6c0,0.9-0.3,1.5-1.3,1.6
		C146.4,139.4,147.1,138.4,146.8,137.8"/>
	<path class="st76" d="M166.7,139.4c-0.6-0.1-0.8-0.5-0.7-1c0-0.5,0.2-0.9,0.7-0.9c0.6,0,0.8,0.4,0.8,0.9
		C167.6,139,167.2,139.3,166.7,139.4"/>
	<path class="st14" d="M163,138.5c-0.1,0.5-0.3,1-0.9,1c-0.7-0.1-0.6-0.7-0.6-1.1c0-0.4,0.1-0.9,0.7-0.8
		C162.9,137.6,163,138,163,138.5"/>
	<path class="st77" d="M198.4,139c-0.1,0.5-0.4,0.6-0.8,0.5c-0.2,0-0.5-0.1-0.4-0.4c0.1-0.4,0.6-0.4,0.9-0.5
		C198.4,138.5,198.4,138.8,198.4,139"/>
	<path class="st78" d="M151.2,138.1c0-0.1,0-0.2,0-0.2c0.4,0.1,0.7-0.2,1-0.4c0.2-0.2,0.5-0.4,0.9-0.1c0.1,0.1,0.1,0.2,0.1,0.3
		c-0.1,0.4-0.5,0.4-0.8,0.4C152,138.1,151.6,138.1,151.2,138.1"/>
	<path class="st78" d="M152.8,138.6c0.3-0.1,0.4,0.1,0.4,0.3c0,0.5-0.3,0.6-0.8,0.6c-0.2,0-0.5,0-0.4-0.3
		C152,138.7,152.6,138.8,152.8,138.6"/>
	<path class="st79" d="M207.5,138.5c0,0.6-0.1,1.1-0.8,1c-0.6-0.1-0.8-0.6-0.8-1.1c0-0.5,0.2-1,0.9-1
		C207.5,137.5,207.5,138,207.5,138.5"/>
	<path class="st75" d="M215.7,138.7c0.3-0.1,0.3,0.1,0.3,0.3c0,0.4-0.2,0.5-0.6,0.5c-0.2,0-0.4,0-0.4-0.3
		C215,138.8,215.4,138.8,215.7,138.7"/>
	<path class="st46" d="M239.9,137.6c-0.1,0.4-0.4,0.4-0.6,0.4c-0.3,0-0.6,0-0.5-0.4c0-0.3,0.3-0.5,0.6-0.4
		C239.5,137.3,239.7,137.5,239.9,137.6"/>
	<path class="st80" d="M186.1,138c-0.3,0-0.6-0.1-0.5-0.4c0.1-0.3,0.3-0.4,0.6-0.4c0.3,0,0.6,0.2,0.5,0.5
		C186.7,138,186.4,138,186.1,138"/>
	<path class="st40" d="M187.9,138.5c-0.8,0.6-1.8,0.1-2.6,0.4C186,138.1,187,138.7,187.9,138.5"/>
	<path class="st61" d="M199.7,170.1c-1.9,0.2-3.8-0.3-5.6-0.7c-0.9-0.2-1.4-0.4-1-1.6c0.9-2.8,0.8-2.9,3.7-2.3
		c2.4,0.5,4.8,0.5,7.1-0.1c1.2-0.3,1.6,0.1,1.8,1.1c0.1,0.4,0.2,0.7,0.4,1.1c0.4,1,0.3,1.7-1,1.9
		C203.3,169.8,201.5,170.3,199.7,170.1"/>
	<path class="st61" d="M200.3,164.8c-1.4-0.3-3-0.3-4.4-0.7c-0.8-0.2-1.2-0.6-0.7-1.4c0.3-0.6,0.6-1.1,0.9-1.8
		c0.3-0.9,0.9-1.1,1.8-0.9c0.9,0.2,1.9,0.5,2.7,0.2c1.7-0.6,2.5,0.1,3.2,1.6c1.2,2.6,1.2,2.5-1.6,2.8
		C201.5,164.7,200.9,164.8,200.3,164.8"/>
	<path class="st61" d="M207.2,173.8c-1.4-0.3-2.7-0.6-4.1-0.9c-0.3-0.1-0.5-0.2-0.8-0.1c-1.7,0.3-3.3,0.7-5.1,0.1
		c-1.8-0.6-3.6,0.4-5.4,0.9c0-0.2,0-0.3,0-0.5c0.4-2.9,0.4-2.9,3.3-2.3c3.2,0.7,6.5,0.6,9.7-0.1c2.1-0.5,2.2-0.5,2.4,1.7
		C207.2,172.9,207.2,173.3,207.2,173.8"/>
	<path class="st81" d="M205.5,156.8c-3.7,3-8.1,3-12.1-0.1C197.6,155.6,201.5,155.7,205.5,156.8"/>
	<path class="st65" d="M188.2,162.1c1.2,0,1.9,1.2,1.3,2.3c-0.4,0.6-0.8,1.2-1,1.8c-0.4,0.9-0.9,0.9-1.6,0.5c-1.9-1-2-1-0.6-2.7
		C187.2,162.7,187.8,162.1,188.2,162.1"/>
	<path class="st65" d="M211.5,162.2c0.4,0,2.6,2.6,2.6,2.9c0,0.4-2,1.7-2.4,1.7c-0.2,0-2.2-2.9-2-3.2
		C209.9,162.7,210.9,162.7,211.5,162.2"/>
	<path class="st72" d="M193,164.7c-0.4,1.3-0.7,2.6-1.3,3.6c-0.5,0.8-1.2-0.1-1.9-0.3c-0.6-0.2-0.8-0.5-0.5-1.1
		c0.5-0.9,1-1.8,1.5-2.7c0.3-0.6,0.8-0.4,1.2-0.2C192.4,164.2,193,164.2,193,164.7"/>
	<path class="st65" d="M210.1,167.1c-0.3,0.9-1.2,0.9-1.8,1.2c-0.6,0.3-0.9,0-1-0.6c-0.2-0.7-0.4-1.4-0.7-2c-0.4-0.8,0-1.1,0.7-1.5
		c0.8-0.4,1.2-0.2,1.5,0.5C209.3,165.6,209.7,166.3,210.1,167.1"/>
	<path class="st62" d="M184,165c-0.8-0.6-1.6-0.8-2-1.4c-0.4-0.6,0.4-0.9,0.8-1.2c0.6-0.6,1.3-1.1,2-1.7c0.5-0.4,1-0.2,1.5,0.1
		c0.6,0.5,0.1,0.8-0.1,1.2c-0.6,0.7-1.1,1.5-1.7,2.2C184.2,164.5,184.1,164.8,184,165"/>
	<path class="st72" d="M206.2,158.1c0.6,0,1,0.4,1.4,0.6c0.7,0.5,1.4,1,2,1.6c0.3,0.3,1.4,0.5,0.6,1.2c-0.5,0.5-1.3,1.4-2.2,0.3
		c-0.7-0.9-1.5-1.7-2.2-2.6c-0.2-0.2-0.4-0.4-0.2-0.7C205.8,158.3,206.1,158.2,206.2,158.1"/>
	<path class="st72" d="M192.9,158c0.5,0.2,1,0.3,0.5,0.9c-0.7,0.9-1.4,1.8-2.1,2.7c-0.8,0.9-1.5,0.1-2-0.3c-0.7-0.5,0.2-0.8,0.5-1.1
		C190.7,159.3,191.7,158.6,192.9,158"/>
	<path class="st72" d="M217,163.7c-1.1,1-1.8,1.1-2.4,0c-0.4-0.6-0.9-1.1-1.3-1.6c-0.2-0.3-0.6-0.5-0.1-0.9c0.3-0.3,0.7-0.3,1,0
		C215.1,161.9,216,162.8,217,163.7"/>
	<path class="st82" d="M207.4,162.8c-0.1,0.4-0.4,0.4-0.7,0.6c-0.4,0.2-0.7,0.3-1-0.1c-0.6-1.1-1.2-2.3-1.8-3.4
		c-0.2-0.3-0.1-0.5,0.3-0.6C204.5,159.2,207.4,162.4,207.4,162.8"/>
	<path class="st83" d="M192.2,162.5c0-0.4,2.3-3.2,2.6-3.2c0.5,0,0.6,0.3,0.4,0.6c-0.5,1-1,2-1.5,3c-0.2,0.5-0.6,0.4-1,0.2
		C192.5,163,192.2,162.9,192.2,162.5"/>
	<path class="st84" d="M191,157.6c-1,0.8-1.9,1.5-2.8,2.3c-0.5,0.4-0.9,0.4-1.2-0.1c-0.5-0.6,0.2-0.7,0.5-0.9
		c1.1-0.6,2.3-1.1,3.5-1.7C190.9,157.5,191,157.6,191,157.6"/>
	<path class="st85" d="M209.4,158.4c1.1,0.1,1.7,0.6,2.4,1c0.3,0.1,0.8,0.3,0.4,0.8c-0.3,0.4-0.7,0.1-1-0.2
		C210.7,159.6,210.2,159.1,209.4,158.4"/>
	<path class="st61" d="M200,190.5c1.9-0.4,3.8-1.1,5.9-0.7c0.4,0.3,0.4,0.7,0.2,1.2c-0.8,2.5-1.8,4.9-3.3,7c-0.5,0.7-1,0.9-1.9,0.7
		c-1-0.2-0.9-0.9-0.9-1.6C200,194.9,200,192.7,200,190.5"/>
	<path class="st64" d="M193.8,189.8c1.8-0.5,3.4,0.7,5.1,0.7c0,2.3,0,4.7,0,7c0,0.6,0,1-0.8,1.2c-0.6,0.2-0.9,0-1.2-0.5
		c-1.3-2.2-2.5-4.6-3.4-7C193.5,190.6,193.3,190.2,193.8,189.8"/>
	<path class="st81" d="M185.1,193.5c3-1.7,3-1.7,4.7,1c1.1,1.7,2.4,3.3,3.7,4.9c0.2,0.2,0.6,0.5,0.3,0.8c-0.3,0.4-0.7,0.2-1,0
		C190.8,199.3,186.6,195.6,185.1,193.5"/>
	<path class="st81" d="M205.1,200.3c2.2-2.5,4.2-5,5.7-7.9c0.2-0.5,0.6-0.4,1-0.2c0.6,0.3,1.2,0.5,1.8,0.8c0.7,0.2,0.9,0.5,0.3,1.1
		c-2.4,2.6-5.1,4.7-8.2,6.4C205.6,200.5,205.5,200.4,205.1,200.3"/>
	<path class="st65" d="M191.4,190.8c0.8-0.2,1,0.2,1.1,0.7c0.9,2.5,2,4.8,3.4,7c0.2,0.3,0.5,0.5,0.1,0.8c-0.4,0.3-0.7,0.2-1-0.1
		c-2-2.2-3.9-4.4-5.1-7.1C189.3,190.8,191.2,191.4,191.4,190.8"/>
	<path class="st65" d="M194.2,201.7c3.5-2.6,7.5-2.6,10.5,0C201.2,202.4,197.8,202.5,194.2,201.7"/>
	<path class="st65" d="M203.3,199.4c1.8-2.6,3.1-5.3,4-8.2c0.3-0.9,1-0.4,1.5-0.2c0.5,0.2,1.3,0.2,0.9,1c-1.5,2.8-3.2,5.6-5.9,7.5
		C203.7,199.5,203.6,199.5,203.3,199.4"/>
	<path class="st86" d="M191.5,201c-3.8-1.2-6.6-3.2-9.1-5.5c-0.3-0.3-0.6-0.6,0-0.9c0.6-0.3,1.2-0.9,1.9-0.1
		c0.8,1.1,1.7,2.1,2.8,2.9C188.5,198.5,189.8,199.6,191.5,201"/>
	<path class="st87" d="M216.9,194.5c-2.2,2.5-4.7,4.3-7.8,5.5c2.1-1.8,4.5-3.5,6.2-5.7C215.6,193.9,215.7,193.9,216.9,194.5"/>
	<path class="st88" d="M188.5,189.8c0.6,0,1.3,0,1.9,0C189.8,190.1,189.2,190.9,188.5,189.8"/>
	<path class="st89" d="M209.2,189.8c0.5,0,1.1,0,1.6,0C210.2,190.7,209.7,190,209.2,189.8"/>
	<path class="st3" d="M194.4,186.5c-0.3,0.1-0.7,0.2-1,0.3c-2.2,0.2-4.4,0.8-6.6,1.1c-0.5,0.1-1.1,0-1.6,0.2
		c-1.4,0.2-2.8,0.3-4.2,0.1c0-1.1,0.8-1.2,1.6-1.4c2.1,0,4.1-0.5,6.2-0.9c0.6-0.2,1.2-0.1,1.8-0.4c0.8-0.3,1.7-0.5,2.6-0.4
		c0.6,0,1.2,0,1.8,0c1.4,0.1,2.7,0.6,3.7,1.6c0.2,0.2,0.4,0.4,0.6,0.5c0.4,0,0.7-0.2,0.8-0.4c0.8-1.3,2.1-1.6,3.4-2
		c0.7-0.1,1.3-0.1,2,0c1.8,0.4,3.5,0.7,5.3,1.3c0.8,0.4,1.6,0.3,2.4,0.4c0.3,0.1,0.6,0.2,0.9,0.2c0.5,0,0.9,0,1.4,0.1
		c0.4,0.1,0.9,0.2,1.3,0.3c0.2,0,0.3,0.1,0.4,0.2c0.2,0.3,0.8,0.4,0.2,0.9c-0.6,0-1.2,0-1.7,0c-0.6-0.2-1.2-0.1-1.8-0.1
		c-0.4,0-0.9,0-1.3-0.2c-0.5-0.1-1.1,0.2-1.6-0.2l0,0c-0.6-0.3-1.4-0.1-2-0.6c-0.2,0-0.4,0-0.6-0.1c-0.5-0.2-1.1-0.1-1.5-0.5
		c-0.3,0-0.6,0-0.9-0.1c-1-0.2-2.1-0.1-3.1,0c-1,0.2-1.7,0.8-2,1.8c-0.4,2.1-1.9,0.8-2.9,1C197.5,187.6,195.8,187.2,194.4,186.5"/>
	<path class="st62" d="M178.9,187.2c-1.3,0.8-1.9,0.4-2.3-1c-0.4-1.7-0.8-3.4-1-5.1c-0.1-0.7-0.3-1.6,0.9-1.4
		c0.9,0.1,2.4-0.8,2.5,1.1c0.1,1.6,0,3.2,0.7,4.8C179.6,186.2,179.2,186.7,178.9,187.2"/>
	<path class="st90" d="M216,179.7c4.2-0.1,3.9-0.6,3.3,3.5c-0.1,0.7-0.3,1.4-0.4,2C217.7,183.5,216.8,181.6,216,179.7"/>
	<path class="st91" d="M180.7,187.5c-0.5-0.6,0.3-0.9,0.3-1.4c1.2-3.2,3-6.1,4.4-9.2c0.1-0.3,0.3-0.4,0.6-0.3
		c0.6,1.1-0.3,1.8-0.6,2.7c-0.2,0.7-0.5,1.3-0.8,1.9c-0.4,1.1-1.1,2.1-1.3,3.2c-0.4,0.9-0.8,1.8-1.5,2.5
		C181.5,187.3,181.2,187.6,180.7,187.5"/>
	<path class="st92" d="M180.4,184.2c-0.1-0.9-0.2-1.8-0.4-2.7c-0.2-1.4,0.3-2.1,1.7-1.8c0.4,0.1,0.8,0,1.1,0
		C182.1,181.2,181.4,182.8,180.4,184.2"/>
	<path class="st93" d="M212.8,176.9c0.1,0,0.2,0,0.4,0.1c0.6,1.1,1.2,2.2,1.6,3.4l3.1,6.8c-0.2,0.3-0.5,0.4-0.9,0.3l0,0
		c-0.5-0.4-0.8-0.9-1-1.5c-0.5-1.3-1.1-2.5-1.7-3.8c-0.1-0.1-0.1-0.3-0.2-0.4c-0.2-0.7-0.5-1.4-0.9-2c-0.1-0.1-0.1-0.3-0.2-0.4
		C212.9,178.6,212.1,177.8,212.8,176.9"/>
	<path class="st94" d="M185.9,176.6c-1.9,3.1-3.3,6.4-5,9.6c-0.2-0.1-0.3-0.3-0.2-0.5c1.7-3.4,3.4-6.8,5.1-10.2
		c0.3-0.1,0.4,0.1,0.5,0.3C186.5,176.1,186.4,176.4,185.9,176.6"/>
	<path class="st95" d="M180.7,187.5c0.3-0.2,0.6-0.4,1-0.7c0.3-0.2,0.6-0.3,0.9-0.1c0.1,0.1,0.1,0.2,0.1,0.3c0,0.1,0,0.1-0.1,0.1
		c-0.5,0.1-1,0.3-1.5,1c1.5,0,2.8,0.1,4.1-0.2c0.1,0.1,0.3,0.1,0.4,0.3c-1.8,0.6-3.6,0.2-5.4,0.3c-0.2,0-0.5-0.2-0.4-0.3
		C180,187.8,180.4,187.7,180.7,187.5"/>
	<path class="st96" d="M186.9,187.7c2-0.4,4-0.8,6.1-1.2c0.2,0,0.4,0.2,0.5,0.3c-2.1,0.7-4.4,1-6.6,1.3c-0.1-0.1-0.1-0.1-0.1-0.2
		C186.8,187.7,186.8,187.7,186.9,187.7"/>
	<path class="st97" d="M194.4,186.5c1.6,0.3,3.2,0.6,3.6,2.5c0.1,0.3,0,0.5-0.4,0.4c-0.4-1.2-1.3-2-2.5-2.2
		C194.8,187.1,194.4,187,194.4,186.5"/>
	<path class="st98" d="M197.7,189.4c0.1-0.1,0.2-0.3,0.4-0.4c1.1,0,2.4,0.8,2.9-1c0.3,0.1,0.1,0.5,0.3,0.7
		C200.4,190.6,199,189.7,197.7,189.4"/>
	<path class="st99" d="M212.7,187.8c0.4,0,0.9,0,1.3,0c0.6,0.2,1.2,0,1.7,0.2l1.9,0c0.1,0.1,0.1,0.1,0.1,0.2c0,0.1-0.1,0.1-0.1,0.1
		c-1.6,0-3.3,0.3-4.9-0.3c-0.1-0.1-0.1-0.1-0.1-0.2C212.7,187.9,212.7,187.8,212.7,187.8"/>
	<path class="st100" d="M202.8,186.4c1.1-0.4,2.3-0.4,3.4,0c-0.1,0.3-0.5,0.1-0.7,0.3c-0.8,0-1.6,0-2.4,0
		C203.1,186.6,202.9,186.6,202.8,186.4"/>
	<path class="st101" d="M214.7,180.3c-0.7-1-1.3-2.1-1.6-3.4c0.1,0,0.1,0,0.2,0C214,178,214.7,179,214.7,180.3"/>
	<path class="st102" d="M202.8,186.4c0.1,0.1,0.3,0.2,0.4,0.4c-1.1,0.2-1.8,0.8-2,1.9c-0.3-0.1-0.3-0.4-0.3-0.7
		C201.2,187.1,201.8,186.5,202.8,186.4"/>
	<path class="st103" d="M186.2,175.7l-0.4-0.4c0-0.1,0-0.2,0-0.3c0.3-0.1,0.7-0.3,1-0.4c0.3,0.1,0.3,0.4,0.4,0.7
		c0.2,0.4,0.1,0.6-0.3,0.8C186.6,176.2,186.4,176,186.2,175.7"/>
	<path class="st104" d="M217.6,188.4c0-0.1,0-0.2,0-0.3c-0.2-0.2-0.4-0.4-0.7-0.6c0.3-0.1,0.6-0.2,0.9-0.3c0.4,0,0.6,0.3,0.8,0.6
		c-0.2,0.2-0.4,0.4-0.6,0.6C217.9,188.4,217.8,188.4,217.6,188.4"/>
	<path class="st105" d="M209.2,187.2c0.7,0.1,1.4,0,2,0.6C210.5,187.7,209.6,188.2,209.2,187.2"/>
	<path class="st106" d="M213.4,175.1c0.8-0.1,0.7,0.5,0.6,1C213.7,175.8,213.4,175.5,213.4,175.1"/>
	<path class="st107" d="M205.6,186.8c0.2-0.1,0.4-0.2,0.7-0.3c0.3,0,0.6,0.1,0.9,0.1c0,0.1,0,0.1,0,0.2
		C206.7,186.8,206.1,186.8,205.6,186.8"/>
	<path class="st108" d="M207.2,186.8c0-0.1,0-0.1,0-0.2c0.5,0.2,1,0.1,1.4,0.6C208.1,187.1,207.5,187.4,207.2,186.8"/>
	<path class="st109" d="M186.9,187.7c0,0.1,0,0.2,0,0.3l-1.2,0.1c-0.1-0.1-0.2-0.2-0.4-0.3C185.8,187.8,186.3,187.7,186.9,187.7"/>
	<path class="st110" d="M212.7,187.8v0.3c-0.6-0.1-1.2,0.1-1.6-0.4C211.6,187.8,212.2,187.8,212.7,187.8"/>
	<path class="st111" d="M218,188.4c0-0.4,0.2-0.6,0.6-0.6C219,188.6,218.4,188.4,218,188.4"/>
	<path class="st86" d="M222.8,180.9c-0.3,1.7-0.4,3.6-1.2,5.4c-0.2,0.4-0.3,0.9-0.9,0.7c-0.4-0.2-1-0.4-0.9-1
		c0.4-1.9,0.7-3.8,0.8-5.8c0-0.9,0.9-0.5,1.4-0.6C222.8,179.6,222.9,180.1,222.8,180.9"/>
	<path class="st112" d="M186.9,176.1c0.1-0.2,0.2-0.4,0.3-0.7c0.5-0.8,1.4-0.9,2.1-0.9c1.9,0,3.7-0.7,5.5-1.1
		c1.5-0.4,3.1-0.7,4.1,1.1c0.3,3.8,0,7.6,0.1,11.4c0,0.8-0.4,0.8-0.9,0.5c-0.9-0.6-1.8-1-2.8-1.2c-0.2,0-0.3,0-0.5-0.1
		c-0.6-0.2-1.2-0.1-1.8,0.1c-1-0.1-1.9,0.2-2.8,0.5c-0.6,0.2-1.3,0.2-2,0.5c-1.9,0-3.8,0.9-5.8,0.7c-0.3,0-0.7,0-1,0l1.3-2.2
		c0.4-1.1,1.1-2.1,1.4-3.2C185.3,179.6,185.7,177.7,186.9,176.1"/>
	<path class="st112" d="M211.5,174.7c0,0.1,0,0.2,0,0.3c1.1,1.3,1.1,3.2,2,4.6l0,0c0.3,0.8,0.6,1.6,1,2.3l0,0
		c0.5,1.4,1.2,2.8,1.8,4.2c-0.5,1.2-1.5,0.5-2.3,0.7c-0.8-0.3-1.6-0.3-2.4-0.4c-1.8-0.6-3.6-1.1-5.5-1.4c-2.3-0.7-4.2,0.1-6,1.4
		c-0.5-0.3-0.3-0.8-0.3-1.2c0-3.2,0-6.4,0-9.6c0-1.7,1.3-2.6,3-2.4C205.6,173.6,208.4,175.2,211.5,174.7"/>
	<path class="st113" d="M199,186.4l0.1-12c0.5,0.9,0.2,1.9,0.2,2.8c0.1,3.2,0.1,6.3,0.1,9.5c0.2,0.4,0.4,0.9-0.3,1
		c-0.1-0.2-0.3-0.4-0.4-0.6C198.6,186.9,198.8,186.6,199,186.4"/>
	<path class="st114" d="M199,187.7c0.4-0.2,0.3-0.6,0.3-1c0.3,0,0.5-0.1,0.6-0.4c1.6-2.1,3.7-2.2,5.9-1.6c-0.1,0.1-0.3,0.2-0.5,0.2
		c-0.7,0.1-1.5-0.3-2.2,0.2c-1.7,0.3-2.9,1.4-3.8,2.7c0,0.1-0.2,0.1-0.3,0C199.1,188,199.1,187.8,199,187.7"/>
	<path class="st115" d="M213.4,179.6c-1.1-1.4-1.5-3-2-4.6c0.7,0.5,1.4,0.9,1.3,1.9C212.6,177.9,213.5,178.6,213.4,179.6"/>
	<path class="st116" d="M182.6,186.8c1.9-0.5,3.9-0.8,5.9-0.9c0.1,0.1,0.3,0.1,0.4,0.4c-2.1,0.5-4.1,1-6.3,0.9
		C182.6,187,182.6,186.9,182.6,186.8"/>
	<path class="st117" d="M205.5,184.9c0.1,0,0.3,0,0.4-0.1c1.9,0.2,3.8,0.6,5.6,1.3c-0.1,0.3-0.4,0.2-0.7,0.3l-5.3-1.2
		c-0.1-0.1-0.1-0.1-0.1-0.2C205.4,184.9,205.5,184.9,205.5,184.9"/>
	<path class="st118" d="M199,186.4c0,0.3,0.1,0.6-0.3,0.7c-1-0.8-2.1-1.6-3.5-1.7c-0.1-0.1-0.2-0.2-0.2-0.3c0-0.1,0.1-0.2,0.2-0.3
		C196.6,184.7,197.8,185.7,199,186.4"/>
	<path class="st119" d="M195.1,184.8c0,0.1,0,0.3,0,0.4c-0.7,0.2-1.4-0.1-2,0.2c-0.9,0.1-1.7,0.2-2.6,0.4c-0.1-0.1-0.1-0.1-0.1-0.2
		c0-0.1,0.1-0.1,0.1-0.1c0.9-0.6,1.9-0.6,2.9-0.7C194,184.6,194.5,184.6,195.1,184.8L195.1,184.8z"/>
	<path class="st120" d="M213.7,186.5c0.7-0.4,1.8,0.7,2.2-0.7c0.1-0.1,0.2-0.1,0.3,0c0.2,0.6,0.8,1,0.7,1.6c-0.5,0-1,0.1-1.4-0.3
		c-0.5-0.4-1-0.2-1.6-0.1c-0.3,0.1-0.6,0.1-0.8-0.2C213.4,186.6,213.6,186.6,213.7,186.5"/>
	<path class="st121" d="M213.7,186.5c-0.1,0.1-0.3,0.3-0.4,0.4c-0.8-0.1-1.8,0.1-2.5-0.5c0.2-0.1,0.4-0.2,0.7-0.3
		C212.2,186.2,213,186.3,213.7,186.5"/>
	<path class="st122" d="M190.5,185.5c0,0.1,0,0.2,0,0.3c-0.4,0.6-1,0.3-1.6,0.4c-0.1-0.1-0.2-0.2-0.4-0.4
		C189.2,185.7,189.8,185.6,190.5,185.5"/>
	<path class="st123" d="M205.5,184.9c0,0.1,0.1,0.2,0.1,0.3c-0.8,0-1.5,0-2.3,0.1C203.9,184.5,204.7,185,205.5,184.9"/>
	<path class="st121" d="M214.1,187.1c0.5-0.4,1.1-0.6,1.6,0.1C215.1,187.1,214.6,187.1,214.1,187.1"/>
	<path class="st112" d="M193,185.4c0.6-0.4,1.3-0.2,2-0.2c0,0.1,0,0.2,0,0.2C194.4,185.5,193.7,185.4,193,185.4"/>
	<path class="st59" d="M215.8,188c-0.6,0.1-1.2,0.2-1.7-0.2C214.6,187.8,215.2,187.7,215.8,188"/>
	<path class="st124" d="M186.9,176.1c-0.6,1.9-1.7,3.6-2.4,5.4c-0.1,0.1-0.2,0.1-0.3,0c0-0.1,0-0.1,0.1-0.2c0.4-1.6,1.4-3,1.7-4.7
		c0.1-0.3,0.2-0.6,0.3-0.9C186.5,175.8,186.7,176,186.9,176.1"/>
	<path class="st125" d="M184.3,181.2c0.1,0.1,0.2,0.2,0.3,0.3c-0.4,1.1-0.8,2.2-1.6,3.1C183.1,183.3,183.7,182.3,184.3,181.2"/>
	<path class="st126" d="M216.3,185.8c-0.1,0-0.2,0-0.3,0c-0.8-1.2-1.4-2.5-1.6-3.9C215.3,183.1,215.8,184.5,216.3,185.8"/>
	<path class="st126" d="M214.4,181.9c-0.6-0.6-1-1.4-1-2.3C214,180.3,214.4,181,214.4,181.9"/>
	<path class="st118" d="M195.1,184.8c-0.6,0-1.1,0-1.7,0C194,184.4,194.5,184.4,195.1,184.8"/>
</g>
<g>
</g>
<g>
</g>
<g>
</g>
<g>
</g>
<g>
</g>
<g>
</g>
</svg>
